<svg xmlns="http://www.w3.org/2000/svg" fill="none" viewBox="0 0 400 400" id="Collaboration-2--Streamline-Brooklyn.svg" height="400" width="400"><desc>Collaboration 2 Streamline Illustration: https://streamlinehq.com</desc><g id="collaboration-2--work-collaboration-job"><g id="hand6"><g id="vector"><path fill="#191919" d="M206.668 115.5672c0.598 -0.214 1.17 -0.42 1.712 -0.618 2.314 4.2246 5.354 9.0598 9.386 14.2338l-1.734 1.0976c-3.202 -4.1138 -6.36 -8.8818 -9.364 -14.7134Z" stroke-width="1"></path><path fill="#191919" d="M173.1422 123.6212c0.172 6.04 -0.084 13.234 -1.274 20.816 0 0.0108 -0.552 3.4436 -1.2794 8.6046h-2.3244l0.0268 -0.1688c1.4374 -9.074 2.8954 -18.2778 2.819 -29.1098 0.606 -0.038 1.282 -0.084 2.032 -0.142Z" stroke-width="1"></path></g><path id="vector_2" fill="#adc1eb" d="M140.5182 27.1188c2.002 4.646 2.054 9.728 3.558 14.472 1.986 -2.28 4.222 -4.106 7.18 -4.816 8.948 -2.142 10.1 2.158 11.658 0.168 4.62 -5.9 15.224 -8.906 22.386 -5.238 0.64 0.328 1.086 0.286 1.52 -0.296 3.042 -4.076 11.954 -5.196 17.0218 -2.196 -0.51 -4.926 -1.916 -9.97796 -1.676 -14.75396 0.01 -0.2 1.248 -3.488 2.026 -0.362 3.652 14.67796 11.092 95.54996 5.352 98.15196 -14.0298 6.362 -25.3458 9.246 -41.5178 9.714 -1.14 0.034 -1.476 -0.846 -1.774 -1.648 -8.882 -23.89 -22.766 -58.16 -27.116 -92.668 0 -2.084 0.644 -2.252 1.384 -0.534l-0.002 0.006Zm65.7298 29.424c0.38 -0.464 -1.104 -14.734 -1.69 -15.206 -1.45 -1.166 -2.914 -2.246 -4.8998 -2.324 -10.558 -0.414 -10.42 6.618 -13.178 4.096 -3.112 -2.844 -10.216 -1.676 -14.022 0 -5.228 2.3 -4.77 7.938 -7.012 5.152 -3.502 -4.354 -13.286 -0.454 -17.57 6.842 -0.546 0.93 -0.696 0.47 2.618 12.248 0.714 2.536 0.752 2.402 1.816 1.014 3.02 -3.944 9.448 -5.714 14.022 -3.716 1.474 0.644 2.072 0.382 3.042 -0.718 4.652 -5.274 10.646 -7.146 17.36 -5.534 2.45 0.588 3.876 0.79 6.082 -0.93 4.038 -3.148 8.7858 -3.042 13.4318 -0.93v0.006Zm2.196 28.806c0.38 -0.55 -0.636 -15.036 -0.76 -16.262 -0.26 -2.576 -9.1658 -4.14 -13.5578 0.592 -2.746 2.956 -2.408 0.846 -4.984 -0.084 -5.618 -2.026 -12.644 0.668 -15.458 5.914 -0.68 1.266 -1.452 1.364 -2.366 0.254 -3.094 -3.76 -11.736 -0.546 -15.628 6.42 -0.59 1.056 -0.394 0.54 3.674 12.798 1.19 3.588 3.862 -7.052 14.656 -2.408 0.974 0.418 1.318 -0.078 1.858 -0.718 4.03 -4.766 11.322 -6.848 16.81 -4.52 3.676 1.56 2.204 -0.194 5.576 -1.816 3.3878 -1.63 6.7998 -1.604 10.1798 -0.168v-0.002Zm0.802 13.008c-0.05 -2.576 -0.76 -3.29 -3.422 -3.422 -3.336 -0.164 -6.2518 0.716 -8.4898 3.294 -2.198 2.532 -1.354 -2.676 -9.798 -1.268 -3.254 0.544 -6.362 1.554 -7.644 5.196 -0.474 1.348 -1.39 1.476 -2.324 0.38 -2.524 -2.964 -7.942 -1.058 -11.446 2.112 -3.592 3.25 -1.468 4.824 1.648 13.854 0.304 0.884 0.802 1.352 1.774 1.268 17.446 -1.54 32.3958 -6.082 38.3078 -9.038 1.774 -0.886 1.616 -0.802 1.394 -12.376Zm-62.5098 -45.7c2.746 -4.562 11.676 -10.468 18.416 -6.884 0.55 0.292 0.924 0.208 1.224 -0.254 2.124 -3.272 5.322 -4.816 9.038 -5.534 10.728 -2.072 10.97 2.776 12.586 1.268 9.396 -8.77 16.8958 -0.55 16.4718 -3.674 -0.8 -5.914 0.212 -6.764 -3.506 -7.73 -12.2858 -3.188 -13.0158 7.062 -16.3458 3.59 -1.778 -1.854 -13.978 -3.302 -20.908 5.702 -0.588 0.764 -1.226 1.14 -2.196 0.464 -5.154 -3.588 -13.726 -1.268 -16.43 4.392 -0.634 1.648 0.464 4.012 1.648 8.658l0.002 0.002Zm7.688 27.58c3.886 -5.66 11.212 -10.144 16.43 -6.884 0.546 0.342 1.15 0.554 1.604 -0.338 3.022 -5.922 13.992 -7.432 18.71 -4.224 0.63 0.428 1.016 0.298 1.52 -0.212 3.854 -3.876 8.3638 -4.776 13.4318 -2.956 2.112 0.758 0.94 -0.888 0.886 -4.816 -0.072 -5.364 -12.0098 -4.952 -15.2058 0.126 -1.486 2.36 -2.238 0.042 -4.35 -0.592 -6.462 -1.94 -14.058 0.78 -17.698 6.462 -0.512 0.8 -1.146 1.274 -1.986 0.55 -3.444 -2.972 -12.628 -2.238 -15.544 4.604 -0.338 0.676 -0.338 0.296 2.196 8.278l0.006 0.002Zm54.4858 9.166c-0.164 -2.282 -0.674 -2.966 -2.956 -3.252 -3.842 -0.482 -7.4338 -0.084 -9.9258 3.422 -1.352 1.9 -1.688 -0.51 -5.448 -1.224 -5.574 -1.06 -11.08 1.244 -14.276 5.956 -0.46 0.678 -0.838 1.132 -1.648 0.422 -5.946 -5.212 -14.814 1.982 -13.854 4.52 1.836 4.85 1.93 6.792 3.168 5.068 2.134 -2.972 8.898 -7.076 13.642 -3.886 0.758 0.51 0.93 -0.042 1.182 -0.506 2.84 -5.232 12.154 -6.32 16.304 -3.506 2.57 1.742 3.164 -4.88 11.9958 -2.956 2.154 0.47 2.122 0.21 1.816 -4.054v-0.004Z" stroke-width="1"></path></g><g id="hand5"><g id="vector_3"><path fill="#191919" d="M180.1042 259.194c1.396 0.286 1.438 0.224 8.7 -0.972 1.2972 -0.212 2.5632 -0.462 3.8 -0.718l1.9958 1.518c-5.0108 1.218 -9.9642 2.866 -14.0338 2.368 -7.52 -0.916 -3.88 -8.95 0.506 -15.12 0.2898 -0.406 0.58 -0.814 0.8702 -1.222l1.2414 1.658c-4.6966 7.004 -6.6068 11.766 -3.0796 12.488Z" stroke-width="1"></path><path fill="#191919" d="M109.9062 274.738c2.028 -0.928 4.014 3.086 5.322 1.268 1.5652 -2.174 2.992 -4.306 4.302 -6.402l1.1704 2.778c-0.7606 1.422 -1.4988 2.698 -2.0544 3.41 -4.144 5.32 0.69 0.772 16.43 21.288 1.43 1.864 1.734 0.762 4.816 -1.562 1.163 -0.876 2.3016 -1.712 3.417 -2.51l1.9442 1.246c-3.1796 2.296 -5.4912 4.21 -7.0072 5.36 -0.458 0.348 -0.584 0.926 -0.296 1.394 4.718 7.66 6.728 2.544 -7.856 20.654 -12.66 15.72 -31.346 36.774 -46.882 50.346 -1.058 0.924 -2.534 -0.634 -1.478 -1.648l0.1082 -0.102c9.5332 -9.15 27.6674 -26.556 56.5738 -62.112 4.224 -5.194 -26.398 -30.326 -26.44 -30.368 -2.28 -1.9 -1.48 -1.566 -2.998 -0.718 -26.474 14.802 -70.186 49.792 -78.876 54.26 -10.58606 5.444 50.426 -43.126 79.804 -56.582Z" stroke-width="1"></path><path fill="#191919" d="M132.9222 246.986c-3.97 10.94 -4.916 12.154 -8.7 18.5 -0.1134 0.19 -0.2982 0.544 -0.535 1.014h-2.284c10.2152 -17.568 12.703 -32.708 20.645 -48.908 0.6192 -1.262 1.257 -2.572 1.9074 -3.896l1.4194 1.99c-6.373 14.238 -12.4528 31.276 -12.4528 31.3Z" stroke-width="1"></path><path fill="#191919" d="M196.5742 269.964c2.3814 -0.978 4.6058 -1.692 6.5878 -2.254l1.28 1.848c-8.1314 2.5 -10.5152 4.466 -19.6938 6.7 -15.8772 3.868 -27.4502 9.974 -35.3236 15.126l-0.554 -2.17c20.837 -13.5 33.2338 -13.306 47.7036 -19.25Z" stroke-width="1"></path><path fill="#191919" d="m161.3656 211.744 -1.2322 -1.614c2.1854 -3.478 4.5206 -7.166 6.7888 -10.4346l2.0934 0.6006c-2.459 3.474 -5.1154 7.586 -7.65 11.448Z" stroke-width="1"></path><path fill="#191919" d="m177.7782 202.798 -1.8476 -0.838c-2.8896 5.048 -7.3016 11.11 -10.6486 16.144l1.2202 1.976c3.495 -5.48 8.2008 -11.81 11.276 -17.282Z" stroke-width="1"></path><path fill="#191919" d="M181.1582 211.128c-2.7144 2.934 -8.1374 8.962 -12.7318 13.178l-0.7396 -1.864c5.9714 -6.162 11.8574 -12.85 17.0094 -18.234l2.3834 0.746c-1.759 1.756 -3.7274 3.804 -5.9214 6.174Z" stroke-width="1"></path><path fill="#191919" d="M192.6042 208.51c0.507 -0.538 0.9974 -1.088 1.4676 -1.642l2.4248 0.628c-4.8154 5.878 -12.3588 13.11 -18.9614 22.886l-2.669 -0.05c4.522 -7.102 13.1734 -16.968 17.738 -21.822Z" stroke-width="1"></path><path fill="#191919" d="M204.056 210.13c-2.864 2.234 -7.367 6.454 -14.0718 13.544 -2.8928 3.06 -5.0908 5.462 -6.8004 7.356l-2.0256 -0.648c5.8108 -6.578 14.3304 -16.394 20.6138 -21.332l2.284 1.08Z" stroke-width="1"></path><path fill="#191919" d="M189.372 234.78c4.3978 -5.946 8.9384 -11.788 13.79 -17.4 0.868 -1.002 1.694 -2.074 2.424 -3.12l0.722 2.25c-5.3 6.82 -10.7196 13.55 -15.3638 19.582l-1.5722 -1.312Z" stroke-width="1"></path></g><path id="vector_4" fill="#adc1eb" d="M123.0262 265.636c2.28 0.038 4.332 2.07 4.308 4.266 -0.022 1.944 -1.942 4.054 -3.674 4.054 -5.956 0 -6.546 -8.418 -0.634 -8.32Zm0.126 6.588c4.012 0.044 2.998 -5.238 -0.296 -5.28 -3.548 -0.044 -3.548 5.238 0.296 5.28Z" stroke-width="1"></path><path id="vector_5" fill="#adc1eb" d="M126.9462 276.056c0.042 -5.576 8.532 -4.9 8.448 0.422 -0.086 5.406 -8.49 5.11 -8.448 -0.422Zm4.012 -2.576c-3.59 -0.124 -3.548 5.254 0.254 5.406 3.59 0.144 3.506 -5.276 -0.254 -5.406Z" stroke-width="1"></path><path id="vector_6" fill="#adc1eb" d="M138.3682 279.678c2.28 0.038 4.332 2.07 4.308 4.266 -0.022 1.944 -1.942 4.054 -3.674 4.054 -5.956 0 -6.546 -8.418 -0.634 -8.32Zm0.126 6.588c4.012 0.044 2.998 -5.238 -0.296 -5.28 -3.548 -0.044 -3.548 5.238 0.296 5.28Z" stroke-width="1"></path><path id="vector_7" fill="#adc1eb" d="M141.6662 290.576c0.042 -5.576 8.532 -4.9 8.448 0.422 -0.086 5.406 -8.49 5.11 -8.448 -0.422Zm4.012 -2.576c-3.59 -0.124 -3.548 5.254 0.254 5.406 3.59 0.144 3.506 -5.276 -0.254 -5.406Z" stroke-width="1"></path></g><g id="hand4"><g id="vector_8"><path fill="#191919" d="M124.5678 149.9092c22.608 4.57 38.598 0.8 57.984 2.47 3.237 0.2752 6.7438 0.555 10.1218 0.914l-3.783 1.715c-16.2006 -1.0488 -37.0186 -0.475 -37.0448 -0.475 -10.85 0.27 -20.67 -1.212 -27.512 -2.748 0.116 -0.784 0.188 -1.404 0.234 -1.876Z" stroke-width="1"></path><path fill="#191919" d="M155.6458 204.206c-1.858 -7.3508 6.926 -6.8848 14.276 -5.0268 8.5802 2.1908 17.1604 4.4268 25.625 7.0548l5.9272 4.016 -4.1166 -1.2c-21.8816 -6.66 -40.9716 -12.779 -39.7696 -6.112 0.252 1.436 0.296 1.394 4.054 7.772 5.11 8.616 11.446 14.782 6.758 24.37 -1.266 2.576 -5.194 3.168 -7.94 -0.802 -7.896 -11.234 -10.516 -11.488 -17.02 -20.822 -11.726 -16.7908 -24.232 -26.0608 -32.194 -31.0708 0.276 -0.404 0.58 -0.858 0.894 -1.334 24.01 14.304 29.826 29.1328 41.31 41.1888 5.616 5.914 8.236 11.278 10.052 12.376 1.606 0.972 2.788 0.508 3.506 -1.182 4.518 -11.32 -9.124 -20.358 -11.362 -29.228Z" stroke-width="1"></path><path fill="#191919" d="M176.8898 188.8312c-0.928 -0.128 -1.14 0.464 -0.464 1.14 0.8144 0.799 6.9008 2.909 14.142 5.5964l-1.1228 1.8278c-11.4544 -4.5192 -12.812 -4.5012 -14.2012 -6.4542 -2.2036 -3.146 -0.4602 -4.1228 3.2594 -3.8616v1.9952c-0.5338 -0.086 -1.0716 -0.1674 -1.6134 -0.2436Z" stroke-width="1"></path><path fill="#191919" d="m187.1424 166.555 2.3026 -1.278c2.9358 0.5904 6.313 1.2162 9.7452 1.892l-1.8328 1.6642 -0.0212 -0.0046c-3.626 -0.7684 -7.1798 -1.5216 -10.1938 -2.2736Z" stroke-width="1"></path><path fill="#191919" d="M203.626 163.2538c-0.658 0.0526 -1.376 0.075 -2.152 0.0634 -2.612 -0.0368 -5.0224 -0.2066 -7.2662 -0.4004l3.1496 -1.8024c3.2986 0.1774 6.2966 0.2352 8.1986 -0.1132l-1.93 2.2526Z" stroke-width="1"></path><path fill="#191919" d="M206.338 155.963c0.872 0.3666 1.586 0.7744 2.104 1.2302 0.684 0.6006 1.114 1.2906 1.244 1.986h-2.088c-0.268 -0.7788 -1.37 -1.4344 -3.086 -1.986l1.826 -1.2302Z" stroke-width="1"></path><path fill="#191919" d="m207.598 180.0998 1.688 -1.728c-2.414 -0.364 -5.088 -0.9116 -7.812 -1.5202l-2.294 1.5202c2.882 0.6578 5.75 1.282 8.418 1.728Z" stroke-width="1"></path><path fill="#191919" d="m182.5518 189.8286 3.077 -1.4688c2.7994 0.6926 5.8704 1.6004 8.9126 2.5814l-1.8678 1.589c-3.1778 -1.0116 -6.5536 -1.9498 -10.1218 -2.7016Z" stroke-width="1"></path></g><path id="vector_9" fill="#adc1eb" d="M16.05396 154.321c8.70004 0.592 9.13404 6.738 82.95404 27.876 6.376 1.826 6.42 1.69 7.012 0.972 5.794 -7.048 11.99 -24.498 14.234 -33.368 0.758 -3 0.796 -3.918 -13.094 -12.84 -22.988 -14.766 -22.476 -14.912 -23.526 -12.206 -0.934 2.406 -4.144 3.052 -6.926 1.732 -2.116 -1.004 -3.092 -4.396 -1.942 -6.716 1.006 -2.032 0.978 -1.954 -1.014 -3.084 -17.388 -9.856 -16.69 -10.396 -18.12 -8.362 -2.548 3.624 -10.314 0.124 -8.448 -4.816 0.99 -2.62 -1.15 -2.494 -5.864 -5.838 -0.198 -0.14 0.102 -0.756 0.572 -0.64 8.516 2.114 64.672 34.146 80.39 48.25 2.784 2.498 -5.026 22.47 -9.798 31.214 -5.026 9.208 -5.532 10.09 -7.856 9.376 -6.374 -1.956 -58.668 -13.812 -87.98004 -30.706 -0.168 -0.126 -0.464 -0.168 -0.592 -0.844h-0.002ZM82.282 123.825c1.014 -2.28 -0.68 -2.822 -3.422 -4.308 -1.396 -0.756 -1.948 -0.594 -2.618 0.886 -2.084 4.598 4.182 7.602 6.04 3.422Zm-27.708 -16.6c1.308 -1.352 0.086 -1.564 -3.802 -3.844 -4.686 -2.748 -1.142 8.952 3.802 3.844Z" stroke-width="1"></path><path id="vector_10" fill="#adc1eb" d="M31.302 146.2946c2.788 -0.254 4.918 2.492 4.984 5.28 0.058 2.492 -2.45 5.068 -4.816 4.984 -7.054 -0.252 -7.18 -10.348 -0.168 -10.264Zm-0.338 1.52c-4.52 0.042 -4.224 7.376 0.422 7.264 4.182 -0.1 4.308 -7.308 -0.422 -7.264Z" stroke-width="1"></path><path id="vector_11" fill="#adc1eb" d="M101.838 173.6648c-0.042 7.012 -10.074 6.082 -10.094 -0.296 -0.02 -6.124 10.138 -6.884 10.094 0.296Zm-1.604 -0.084c-0.008 -1.9 -1.816 -3.716 -3.632 -3.716 -1.69 0 -3.25 1.858 -3.21 3.844 0.092 4.646 6.864 4.816 6.842 -0.126v-0.002Z" stroke-width="1"></path><path id="vector_12" fill="#adc1eb" d="M56.856 138.3972c-2.704 0.254 -5.026 -2.324 -5.026 -5.196 0 -2.576 2.28 -4.828 4.9 -4.858 6.842 -0.076 7.012 10.052 0.126 10.052v0.002Zm-3.378 -5.068c0 4.816 6.778 5.068 6.842 0.254 0.062 -4.646 -6.842 -5.196 -6.842 -0.254Z" stroke-width="1"></path><path id="vector_13" fill="#adc1eb" d="M103.7378 145.6194c-0.042 6.926 -9.944 6.546 -10.052 -0.126 -0.104 -6.42 10.096 -7.012 10.052 0.126Zm-4.942 3.59c4.478 -0.022 4.434 -7.264 -0.296 -7.264 -4.266 0 -4.35 7.286 0.296 7.264Z" stroke-width="1"></path><path id="vector_14" fill="#adc1eb" d="M73.0318 159.7688c-0.062 6.546 -10.136 6.252 -10.094 -0.38 0.042 -6.588 10.16 -6.546 10.094 0.38Zm-5.238 -3.802c-4.392 -0.08 -4.224 7.102 0 7.264 4.604 0.176 4.942 -7.174 0 -7.264Z" stroke-width="1"></path><path id="vector_15" fill="#adc1eb" d="M32.5698 123.6132c0 6.97 -10.032 6.42 -10.01 -0.38 0.018 -6.04 10.01 -6.588 10.01 0.38Zm-1.606 0.126c0.062 -4.858 -6.776 -5.196 -6.8 0 -0.022 4.436 6.736 4.9 6.8 0Z" stroke-width="1"></path></g><g id="hand3"><g id="vector_16"><path fill="#191919" d="m216.024 284.33 -0.002 -0.002c-0.662 0.194 -1.31 0.392 -1.95 0.592 -4.526 -7.832 -11.418 -17.454 -22.0558 -27.166 -8.406 -7.686 -8.322 -10.306 -18.416 -19.598 -3.548 -3.252 -2.45 -7.052 0.254 -7.982 10.136 -3.42 15.374 3.676 23.272 9.842 5.8278 4.52 5.7858 4.604 7.1798 5.026 5.326 1.686 3.834 -11.492 1.036 -28.85 -0.33 -2.052 -0.678 -4.162 -1.036 -6.312l2.936 2.244v1.984c0.954 6.396 1.744 12.818 2.51 19.238 0.888 7.518 0.212 16.346 -6.842 13.516 -8.4898 -3.378 -15.6698 -18.078 -27.4958 -15.078 -1.816 0.464 -2.408 1.604 -1.648 3.294 0.844 1.942 5.872 5.236 10.982 11.572 9.1796 11.384 21.0498 18.688 31.2738 37.678 0.002 0 0.004 0 0.006 -0.002l-0.004 0.004Z" stroke-width="1"></path><path fill="#191919" d="M250.352 279.142c-0.252 -6.286 -0.058 -13.946 1.214 -22.06 0.01 -0.01 0.464 -2.792 1.086 -7.114h2.278c-1.438 9.094 -2.822 18.4 -2.58 29.41 -0.612 -0.104 -1.28 -0.182 -1.998 -0.236Z" stroke-width="1"></path><path fill="#191919" d="M219.636 228.022c0.548 0.718 1.182 0.592 1.182 -0.338 -0.028 -3.29 -0.258 -6.464 -0.616 -9.508l2.362 1.304c0.87 8.006 0.308 13.578 -3.94 9.684 -1.708 -1.562 -1.572 -2.906 -4.268 -13.784l2.242 0.812c1.392 6.184 2.446 11.036 3.038 11.83Z" stroke-width="1"></path></g><path id="vector_17" fill="#adc1eb" d="M220.084 386.322c-2.37 -8.078 -9.028 -37.854 -9.824 -81.006 -0.3 -16.218 -1.644 -16.804 1.436 -17.866 20.078 -6.926 41.516 -8.066 43.166 -5.364 10.318 16.892 29.336 82.296 30.462 92.398 0.138 1.234 -0.742 1.284 -1.2 0.528 -3.392 -5.59 -9.612 -33.51 -26.22 -80.676 -3.794 -10.774 -4.224 -11.232 -6.674 -11.15 -13.472 0.444 -5.672 -8.246 19.682 91.442 0.162 0.636 0.55 1.48 -0.506 1.774 -1.688 0.468 -0.16 0.04 -12.756 -42.236 -15.152 -50.856 -14.022 -50.758 -16.176 -50.516 -8.654 0.974 -9.454 0.21 -8.912 2.914 5.17 25.752 18.578 75.098 19.556 90.852 0.116 1.876 -0.382 2.918 -1.046 0.672 -2.448 -8.278 -9.368 -42.314 -16.314 -71.714 -4.94 -20.908 -3.418 -21.48 -5.534 -21.16 -3.544 0.536 -7.02 1.358 -10.516 2.196 -1.186 0.284 -0.594 0.128 6.926 48.108 5.488 35.014 9.462 47.1 7.94 47.474 -1.224 0.3 -1.36 -0.04 -3.59 -11.066 -17.85 -88.262 -8.922 -85.682 -17.106 -82.488 -1.396 0.544 -1.038 0.21 -0.212 18.33 2.298 50.404 9.406 72.87 8.744 78.77 -0.046 0.41 -0.87 1.346 -1.326 -0.212v-0.004Z" stroke-width="1"></path></g><g id="hand2"><g id="vector_18"><path fill="#191919" d="M230.364 252.224c15.444 -1.098 28.962 -7.246 52.858 -3.564 -0.122 0.598 -0.234 1.184 -0.344 1.768 -9.4 -1.186 -22.756 -1.598 -39.166 2.13 -11.11 2.534 -13.22 0.928 -26.61 3.928 -4.73 1.056 -7.222 -2.026 -6.42 -4.772 2.956 -10.264 11.784 -10.518 21.372 -13.474 7.054 -2.156 7.096 -2.114 8.236 -3 6.25 -4.774 -19.26 -15.248 -43.5036 -27.074 -2.408 -1.182 -5.28 -2.998 -5.914 -5.49 -2.746 -11.2358 40.8836 10.37 44.2216 10.306 0.928 -0.016 1.182 -0.59 0.422 -1.14 -13.478 -9.212 -27.398 -12.7206 -35.428 -16.8522l2.224 -1.3634c1.348 0.6762 2.808 1.3174 4.316 1.8758 10.94 4.096 40.168 16.4298 28.764 19.0058 -2.66 0.592 -3.59 -0.674 -19.682 -6.588 -32.9036 -12.0818 -23.8636 -3.676 -14.614 0.21 11.192 4.688 21.962 10.306 32.648 16.008 6.674 3.548 13.516 9.122 7.18 13.304 -7.646 5.026 -23.822 2.534 -28.088 13.938 -0.634 1.774 -0.042 2.872 1.774 3.252 2.068 0.422 7.644 -1.818 15.754 -2.408Z" stroke-width="1"></path><path fill="#191919" d="M294.478 216.908c-5.28 -3.374 -11.412 -7.876 -17.316 -13.51 -0.02 -0.02 -9.442 -9.103 -19.662 -17.9174l0.926 -2.4468c12.724 10.3228 21.582 21.7542 37.114 32.1622 -0.358 0.548 -0.712 1.12 -1.062 1.712Z" stroke-width="1"></path><path fill="#191919" d="M234.544 176.3662c-0.872 -0.767 -1.594 -1.5002 -2.178 -2.194l2.178 -0.5608c2.258 2.2484 5.832 5.0234 9.168 7.684l-0.254 2.149c-2.67 -2.0306 -5.71 -4.2372 -8.914 -7.0782Z" stroke-width="1"></path><path fill="#191919" d="m241.768 187.8102 0.424 -1.8796c-4.466 -2.6796 -10.006 -6.1912 -15.154 -9.0932l-1.7 1.5258c5.344 2.9444 11.432 6.6832 16.43 9.447Z" stroke-width="1"></path><path fill="#191919" d="m217.102 183.5664 1.818 -1.136c6.568 4.3392 16.262 9.0662 21.37 12.5594v2.6058c-5.644 -4.2998 -16.174 -9.2068 -23.188 -14.0292Z" stroke-width="1"></path><path fill="#191919" d="M240.29 200.08c-5.904 -0.893 -17.312 -5.4466 -22.216 -7.3238 -3.704 -1.4092 -6.888 -2.5332 -9.604 -3.4118l2.568 -1.5342c8.448 3.0166 18.806 7.3522 28.536 10.56l0.716 1.7098Z" stroke-width="1"></path><path fill="#191919" d="M193.2804 187.8102c-0.4674 -3.6158 2.6238 -4.1574 7.8156 -3.032l-2.237 2.0828c-4.3954 -0.6366 -4.8058 0.6282 -2.985 2.4834l-1.1826 1.6768c-0.7684 -0.9648 -1.2536 -2.0204 -1.411 -3.211Z" stroke-width="1"></path></g><path id="vector_19" fill="#adc1eb" d="M375.87 293.954c-3.674 -0.126 -23.648 -6.81 -28.764 -8.658 -20.216 -7.306 -35.986 -15.204 -49.122 -21.71 -14.234 -7.052 -14.442 -6.842 -14.108 -9.124 2.55 -17.314 9.242 -33.12 13.812 -39.534 4.216 -5.918 72.856 9.554 79.954 11.066 14.568 3.102 14.276 3.21 13.938 4.9 -0.422 2.112 -43.42 -10.342 -90.81 -15.458 -0.844 -0.092 -1.178 0.426 -1.478 1.014 -5.644 11.034 -11.42 25.346 -13.008 37.634 -0.208 1.606 -0.06 1.006 12.84 7.392 1.946 0.964 1.18 -0.508 6.674 -13.896 9.708 -23.656 9.264 -22.796 9.926 -23.526 3.798 -4.194 -6.716 23.526 -6.884 23.99 -4.934 13.672 -7.006 14.814 -4.52 15.966 56.082 25.974 69.142 25.764 71.55 29.946v-0.002Z" stroke-width="1"></path></g><g id="hand1"><path id="vector_20" fill="#191919" d="M375.194 77.955c-8.152 3.548 -12.43 13.856 -74.464 54.444 -5.234 3.426 -5.23 3.37 -9.756 -1.056 -8.138 -7.956 -14.99 -16.924 -21.034 -26.524 -0.88 -1.398 -0.756 -2.234 0.168 -3.464 18.814 -25.012 41.298 -47.82 49.332 -56.894 35.984 -40.62794 -11.272 4.904 -38.774 39.45 -16.342 20.53 -14.83 18.418 -11.15 24.794 8.856 15.34 24.666 28.046 24.708 28.088 1.754 1.712 2.744 0.21 6.42 -2.07 49.698 -30.814 75.224 -55.034 74.548 -56.766l0.002 -0.002Z" stroke-width="1"></path><path id="vector_21" fill="#191919" d="M287.116 132.699c-25.468 24.286 -25.352 41.564 -33.606 58.114 -3.624 7.268 -4.536 13.205 -5.956 14.783 -1.24 1.38 -2.53 1.306 -3.674 -0.126 -7.614 -9.529 2.722 -22.135 2.28 -31.299 -0.364 -7.562 -8.664 -4.53 -15.12 -0.592 -10.358 6.318 -20.652 12.716 -30.41 19.978 -8.066 6 -19.888 9.511 7.222 -12.672 13.264 -10.852 14.824 -10.982 15.67 -13.6 3.588 -11.11 -21.912 7.74 -30.96 15.12 -10.632 8.672 -24.77 11.308 3.422 -11.236 6.172 -4.936 25.132 -19.488 17.232 -19.302 -6.25 0.146 -33.132 21.338 -36.07 14.614 -1.954 -4.472 27.278 -17.114 33.578 -22.976 1.772 -1.65 0.886 -3.552 -1.478 -3.378 -6.252 0.456 -26.158 11.066 -26.018 6.378 0.194 -6.506 51.91 -20.822 51.952 -20.822 19.682 -5.534 33.522 -15.496 33.226 -16.046 -0.168 -0.38 -0.422 -0.718 -0.634 -1.056 -24.37 15.966 -42.09 15.762 -62.622 24.028 -9.248 3.722 -20.858 8.24 -23.314 12.206 -1.938 3.128 0.51 6.386 8.448 3.802 8.534 -2.778 14.318 -6.294 20.02 -6.884 -1.942 3.632 -36.382 17.7 -35.352 24.032 1.998 12.296 25.848 -7.56 37.718 -11.742 0.168 -0.126 0.422 0.212 0.38 0.338 -17.656 15.712 -43.254 31.56 -33.832 35.564 8.57 3.64 20.146 -14.036 42.152 -24.16 0.842 -0.388 1.242 0.136 0.802 0.972 -1.546 2.946 -42.432 29.472 -31.34 32.86 2.454 0.751 5.49 -0.802 7.73 -2.28 22.512 -14.868 44.502 -31.512 45.446 -23.694 0.174 1.436 0.116 1.434 -1.604 8.616 -2.338 9.754 -6.586 17.484 0.718 25.259 1.944 2.068 5.872 1.478 7.35 -3.084 4.226 -13.051 6.672 -14.067 10.136 -24.879 10.426 -32.524 28.538 -45.274 27.312 -46.202 -0.212 -0.254 -0.506 -0.464 -0.802 -0.634h-0.002Z" stroke-width="1"></path><path id="vector_22" fill="#adc1eb" d="M277.796 127.0772c-1.14 3.168 0.634 3.632 1.774 5.196 2.494 3.42 2.536 3.38 -0.296 6.42 -1.732 1.86 -1.784 1.866 -3.126 -0.168 -0.638 -0.968 -1.52 -1.69 -2.196 -2.618 -1.14 -1.564 -2.492 -2.408 -4.562 -2.534 -4.14 -0.254 -7.024 -4.564 -5.956 -8.616 0.334 -1.268 0.356 -1.122 -3.506 -6.378 -1.02 -1.388 -0.458 -1.256 3.716 -3.674 3.046 -1.766 2.62 4.328 8.49 4.688 3.252 0.2 6.082 4.224 5.66 7.688l0.002 -0.004Zm-2.196 0.126c0.68 -7.264 -9.742 -8.066 -10.432 -1.352 -0.744 7.224 9.804 8.068 10.432 1.352Z" stroke-width="1"></path><path id="vector_23" fill="#adc1eb" d="M270.236 126.5292c0.072 1.308 -2.324 -0.464 -3.378 -1.224 -0.254 -0.212 -0.296 -0.592 0.084 -0.802 0.464 -0.256 3.264 1.478 3.294 2.028v-0.002Z" stroke-width="1"></path><path id="vector_24" fill="#adc1eb" d="M271.292 126.5292c-0.55 -1.604 0.676 -3.59 1.394 -3.168 0.718 0.422 -0.718 2.576 -1.394 3.168Z" stroke-width="1"></path></g></g></svg>