<svg xmlns="http://www.w3.org/2000/svg" viewBox="0 0 400 400" id="Team-Work--Streamline-Djakarta.svg" height="400" width="400"><desc>Team Work Streamline Illustration: https://streamlinehq.com</desc><g><g><path d="M318.26 277.1c-6.74 0.68 -13.84 0.72 -20.94 0.8a54.96 54.96 0 0 0 -7.2 0.76 2 2 0 0 1 -1.82 -0.44 26.54 26.54 0 0 0 -9.06 -4.42c-2.58 -0.84 -5.08 -1.86 -7.58 -2.9 -0.72 -0.32 -1.32 -0.74 -0.34 -1.34a5.88 5.88 0 0 0 2.28 -4 212.46 212.46 0 0 1 11.04 -28.66c0.6 -1.38 1.12 -2 2.68 -1.08a9.72 9.72 0 0 0 3.88 1.04 14.5 14.5 0 0 1 7.84 3.16 4 4 0 0 0 4.22 0.92c3.24 -1.22 6.5 -0.56 9.82 -0.22a103.86 103.86 0 0 0 14.9 1.48 48.74 48.74 0 0 1 26 6.38 62 62 0 0 1 11.3 8 18.26 18.26 0 0 1 3.76 5.38c1.48 2.84 3.44 5.42 4.78 8.36 0.6 1.32 0.54 2 -1.22 2.3 -4.18 0.64 -8.34 1.16 -12.54 1.52 -8 0.7 -17.76 2 -25.34 2.32 -4 0.2 -7.88 0.22 -11.82 0.4a21.78 21.78 0 0 1 -4.64 0.24Z" fill="#fadf8f" stroke-width="1"></path><path d="M372.34 324c-5.58 0.38 -11.28 -1.08 -17.06 -1.28 -7.52 -0.24 -24.58 0 -37.26 -0.14 -4 0 -8 -0.26 -12.16 -0.28s-8.28 0.82 -12.42 1.14c-0.16 0 -0.32 0.14 -0.48 0.14 -3.32 0.14 -4.68 0.72 -5.46 -3.84 -0.64 -3.88 -1.66 -7.78 -0.54 -11.68 0.94 -3.24 2.2 -6.4 3.28 -9.6a1.06 1.06 0 0 1 1.08 -0.86c8.7 -0.36 17.4 -0.76 26.1 -0.82 6.98 0 14 -1.04 20.88 -1.18s14.16 -0.8 21.22 -1.22a122.7 122.7 0 0 0 18.88 -2.18 5.72 5.72 0 0 0 1.3 -0.38c0.72 -0.38 0.94 -0.14 1.08 0.62 1 5.48 3.08 10.68 4.42 16.1a27.46 27.46 0 0 1 0.18 11.06c-0.48 2.86 -2.56 4.22 -6.54 4.38 -2.08 0.02 -4.18 0.02 -6.5 0.02Z" fill="#fadf8f" stroke-width="1"></path><path d="M258.4 259.1c-2.84 -5.36 -4.92 -10.28 -11.02 -12.76a36.32 36.32 0 0 1 -9.36 -6c-5.1 -4.2 -7.86 -9.8 -10.66 -15.6 -3.24 -6.76 -4.8 -14 -7.3 -20.98 -0.86 -2.4 0.18 -4.32 -2.26 -6.48a4 4 0 0 1 -1.04 -2.96c-0.14 -4.14 0.42 -6.14 -1.06 -8.56 -2 -3.46 1.66 -3.86 5.54 -5.6 2.6 -1.18 4 -0.74 5.12 2.66a10.16 10.16 0 0 0 2.8 4.54c5 4.7 8.24 10.26 11.7 12.36 4.68 2.86 5.34 7.42 10.16 8.26a8.16 8.16 0 0 1 6.44 4.82 53.36 53.36 0 0 0 8.36 12.64 20.4 20.4 0 0 0 4.3 2.98c0.76 0.5 0.92 1 0.38 1.8a92.66 92.66 0 0 0 -6.36 12.48 72.48 72.48 0 0 0 -5.74 16.4Z" fill="#fadf8f" stroke-width="1"></path><path d="M360.64 117.2a41.8 41.8 0 0 1 23 6.8 13.36 13.36 0 0 1 5.54 6c2 5.2 0.28 9.62 -3.3 13.48 -4.14 4.46 -9.56 6.42 -15.32 7.66a19.02 19.02 0 0 1 -8.36 0.46 1.42 1.42 0 0 0 -1.46 0.62c-1.64 1.86 -3.26 3.74 -4.88 5.6 -0.64 0.74 -1.24 1.54 -2.36 1.36s-1.26 -1.28 -1.38 -2.22c-0.3 -2.56 -0.62 -5.12 -0.82 -7.7a1.5 1.5 0 0 0 -1.34 -1.58 18.14 18.14 0 0 1 -8.56 -4.14 13.06 13.06 0 0 1 -3.54 -12c0.74 -5.34 4.48 -8.26 8.7 -10.74a26.16 26.16 0 0 1 14.08 -3.6Z" fill="#fadf8f" stroke-width="1"></path><path d="M242.16 183.6a15.24 15.24 0 0 1 -4 -0.22 2.96 2.96 0 0 1 -2.74 -3.06c-0.3 -7.5 1.14 -10.38 0.96 -15.12 -0.16 -3.84 0.66 -7.6 0.42 -11.42 -0.12 -1.7 1.08 -2.66 3 -2.64a75.36 75.36 0 0 1 18.54 3.18 7.82 7.82 0 0 1 5 4.26c1.18 2.36 2.36 4.72 3.52 7.1 1.68 3.46 -1.86 6.48 -3.74 18.62 -0.18 1.3 -0.88 1.74 -2.38 1.6 -6.24 -0.66 -12.34 -2.06 -18.58 -2.3Z" fill="#fadf8f" stroke-width="1"></path><path d="M188.28 140.56a63.14 63.14 0 0 1 -7.28 0c-1.56 0 -2.4 -1.16 -2.2 -2.96 0.66 -5.72 2.42 -15.12 2.82 -19.84a8.28 8.28 0 0 1 0.84 -3.06c0.58 -1.14 1.34 -1.12 2.2 -0.54 0.52 0.36 0.9 0.76 1.64 0.64 5.22 -0.8 15.7 -2.8 20.5 -2.66a2 2 0 0 1 2 1.82 151.3 151.3 0 0 1 1.8 16.74c0 5.74 2.82 9.86 -1.7 9.28a98 98 0 0 0 -20.62 0.58Z" fill="#fadf8f" stroke-width="1"></path><path d="M318.6 282c4.46 -0.14 8.92 0 13.36 -0.12 9.46 -0.34 18.9 -0.74 28.34 -1.08 4.84 -0.18 9.7 -0.1 14.54 -0.24a1.16 1.16 0 0 1 1.18 0.44 19.82 19.82 0 0 1 2.38 4.26c0.26 0.7 0.16 0.94 -0.64 1.1 -4.2 0.76 -8.46 1.12 -12.7 1.64 -35.78 4.46 -35.34 2.54 -54.2 4.48 -5.86 0.6 -11.74 0.78 -17.6 1.32 -1.5 0.12 -2.12 -0.16 -1.7 -1.88a18 18 0 0 0 0.12 -7.54c-0.2 -1.04 0.36 -1.12 1.16 -1.1 15.36 0.18 17.16 -1.02 25.76 -1.28Z" fill="#fadf8f" stroke-width="1"></path><path d="M312.28 114.1c-0.64 8.28 -0.64 16.6 -2.3 24.78 -0.28 1.36 -0.88 2 -2.14 1.76 -3.62 -0.46 -16.6 -2.3 -19.5 -2.7s-3.54 -1.54 -3.2 -4.24c1.66 -13.74 3.86 -20.94 3.78 -22.2 -0.16 -2.26 1.1 -3.28 3.38 -2.76 3.78 0.9 7.7 0.76 11.52 1.36 7.2 1.16 8.52 -0.44 8.46 4Z" fill="#fadf8f" stroke-width="1"></path><path d="M153.62 231.42a23.22 23.22 0 0 1 -2.36 0 2.48 2.48 0 0 1 -2.4 -2.48c-1.36 -8.64 -4 -9.68 -2.68 -16.86a62.36 62.36 0 0 0 1.12 -8.18 4.26 4.26 0 0 1 2.92 -4 30.74 30.74 0 0 1 10.92 -1.7 1.5 1.5 0 0 1 1.7 1.48c0.46 4.3 1.62 8.48 2.16 12.76 0.62 4.72 2 9.34 2.26 14 0.14 2.36 -0.28 2.86 -2.66 3.28a61.58 61.58 0 0 1 -10.98 1.7Z" fill="#fadf8f" stroke-width="1"></path><path d="M34.1 212.72c-0.72 4.82 -3.86 6.2 -1.12 8a31.6 31.6 0 0 1 4.38 4 2.5 2.5 0 0 1 0.96 2.56c-0.36 1.08 -1.28 1.28 -2.28 1.42a34.4 34.4 0 0 1 -5.34 0.62c-2.28 0 -1.32 2 -4.48 7.38 -0.56 0.92 -1.16 1.76 -2.3 1.72s-1.62 -0.94 -2 -1.8c-0.9 -1.8 -1.78 -3.64 -2.6 -5.5 -0.4 -0.9 -0.86 -1.26 -2 -0.94a24.28 24.28 0 0 1 -4 0.76 3.12 3.12 0 0 1 -2.98 -0.8c-0.82 -0.98 -0.14 -2 0.34 -2.8 4.78 -8.7 4.88 -8.4 4.72 -9.06a43.58 43.58 0 0 1 -0.3 -8 2 2 0 0 1 0.88 -2 2 2 0 0 1 2.34 0.44c4.38 3.62 5.38 5.12 7.32 4a16.62 16.62 0 0 1 6 -2.28c1.76 -0.3 2.54 0.32 2.46 2.28Z" fill="#fadf8f" stroke-width="1"></path><path d="M282.8 234.18a6.34 6.34 0 0 0 -2.2 2.66 99.6 99.6 0 0 0 -8.3 21.16c-0.74 2.66 -1.66 5.26 -2.52 7.88a7.04 7.04 0 0 0 -0.56 2.78c0 1.04 -0.36 1.06 -1.24 0.8a10.3 10.3 0 0 1 -6.9 -6 1.62 1.62 0 0 1 -0.12 -1.26c3.24 -10 6.58 -19.76 12.34 -28.56 1.74 -2.68 1.7 -2.7 4.7 -1.44 0.78 0.32 1.58 0.58 2.34 0.94s1.66 0.2 2.46 1.04Z" fill="#fadf8f" stroke-width="1"></path><path d="M99.56 167a18.18 18.18 0 0 0 -11.22 4.66c-1.72 1.48 -3.02 1.32 -4 -0.7 -1.76 -3.66 -0.92 -7.1 -0.44 -10.74 0.18 -1.3 0.6 -2 2 -1.18a4.92 4.92 0 0 0 3.3 0.14c4.38 -0.72 8.78 -1.14 13.1 -2.22a2.38 2.38 0 0 1 3.2 1.7c0.54 2 2 3.78 2 6 0 1.24 -0.44 1.8 -1.7 1.7 -1.92 -0.18 -3.8 0.96 -6.24 0.64Z" fill="#fadf8f" stroke-width="1"></path><path d="M287.18 218.8a47.36 47.36 0 0 1 2 -12.74c0.48 -1.66 1.4 -1.7 2.74 -0.66a4 4 0 0 0 3.16 0.7 2 2 0 0 1 2.14 0.66c0.46 0.62 0 1.18 -0.32 1.72a41.44 41.44 0 0 0 -4.3 15.52c0 0.86 -0.18 1.74 -1.18 2s-1.64 -0.24 -2.24 -1.06a6.94 6.94 0 0 1 -2 -6.14Z" fill="#fadf8f" stroke-width="1"></path></g><g><path d="M369.86 199.36c0.2 4.34 -0.3 8.66 -0.28 13a17.5 17.5 0 0 1 -4.34 12.28c-2.3 2.56 -4.52 5.18 -6.9 7.66a12 12 0 0 1 -11.12 3 22 22 0 0 0 -9.16 -0.26 3.84 3.84 0 0 1 -4.66 -1.44 4.78 4.78 0 0 1 0.46 -5.5A9.86 9.86 0 0 1 342 224c3.8 0 4.22 -0.38 5.48 -3.9s2.34 -5.18 -2.52 -7.12a3.24 3.24 0 0 1 -2 -1.8 15.36 15.36 0 0 0 -3.72 -5.16 18 18 0 0 1 -3.76 -7.34c-1.62 -5.42 -4.9 -9.82 -8 -14.34a14 14 0 0 0 -2.56 -2.68c-1.6 -1.38 -3.32 -0.6 -4.94 0 -2.56 0.98 -4 3.26 -5.6 5.26 -0.64 0.78 -1.14 1.64 -2.24 2s-0.82 1.14 -1.18 1.76 -0.34 1.68 -1.34 1.42 -0.52 -1.18 -0.44 -1.86c0.62 -5.12 6.38 -13.88 12.58 -14.82 4.4 -0.66 2.86 0.96 15.76 -1.32a36.3 36.3 0 0 1 24.64 4.18c3.58 2 5.28 5.68 6.74 9.44s0.8 7.72 0.96 11.64Z" fill="#f4b77d" stroke-width="1"></path><path d="M82.2 137.3c0.18 -5.32 0.62 -11.02 1.3 -16.72a34.7 34.7 0 0 1 0.32 -5.38c0.22 -0.82 0.42 -1.58 1.38 -1.64s1.4 0.6 1.44 1.52 0.74 0.9 1.32 0.78a102.1 102.1 0 0 1 14.42 -0.66c2.32 -0.1 4.58 0.5 6.9 0.4a1.52 1.52 0 0 1 1.74 1.78c-0.4 5.28 0 10.58 -0.6 15.86 -0.5 4.78 0.78 9.72 -2.74 9.08 -4.8 -0.88 -9.5 0.28 -14.24 0.62a29.1 29.1 0 0 1 -8.72 -0.8c-2.46 -0.58 -2.72 -0.86 -2.52 -4.84Z" fill="#f4b77d" stroke-width="1"></path><path d="M134.42 180.42a91.48 91.48 0 0 1 1.4 -17.62 4 4 0 0 0 0 -1.8c-0.26 -1.1 1.18 -2.5 2 -2 2.22 1.5 4.5 0.86 6.68 0.44a57.14 57.14 0 0 1 10.6 -0.6c6 0 8.48 -1.56 8 2.5 -1.12 10.16 -1.24 9.56 -0.5 16.94a48 48 0 0 1 -0.24 5.88c0 1.34 -1.16 1.68 -2.36 1.42 -5.88 -1.34 -11.44 1.08 -23.2 0.66a2.4 2.4 0 0 1 -2.44 -2.52 31.72 31.72 0 0 1 0.06 -3.3Z" fill="#f4b77d" stroke-width="1"></path><path d="M354 79.24a3 3 0 0 1 -0.68 1.86c-0.42 0.6 -0.8 1.22 -1.22 1.82 -2.4 3.38 -2.38 3.36 0 6.6 0.9 1.22 1.66 2.54 2.52 3.8a2 2 0 0 1 0.18 2 1.42 1.42 0 0 1 -1.84 0.48c-2 -0.64 -4.12 -0.5 -6.14 -0.94a1.46 1.46 0 0 0 -2 1.12 21 21 0 0 1 -2.58 4.92c-0.48 0.76 -1.08 1.54 -2.16 1.36a2.14 2.14 0 0 1 -1.72 -1.86c-0.54 -2 -1.12 -4 -1.6 -6 -0.62 -2.7 -2.2 0 -7.02 -0.22 -0.94 0 -2 0 -2.34 -0.98a2.54 2.54 0 0 1 0.66 -2.96 45.78 45.78 0 0 1 4.52 -4 5.34 5.34 0 0 0 2.52 -5.28 12.76 12.76 0 0 1 0.4 -3.66 1.72 1.72 0 0 1 3.26 -0.7 4.66 4.66 0 0 0 6 2.26 39.82 39.82 0 0 1 6.94 -1.36c1.54 -0.3 2.3 0.32 2.3 1.74Z" fill="#f4b77d" stroke-width="1"></path><path d="M136.46 284.56a8.8 8.8 0 0 1 -8.46 8.88 11.78 11.78 0 0 1 -10.7 -10.2 9.5 9.5 0 0 1 9.5 -9.12 10.1 10.1 0 0 1 9.66 10.44Z" fill="#f4b77d" stroke-width="1"></path><path d="M92.7 312.3a8 8 0 0 1 9.14 -7.82 14.58 14.58 0 0 1 4.4 0.96 7.84 7.84 0 0 1 2 13.26 9.26 9.26 0 0 1 -10 2.26c-4.24 -1.44 -5.44 -3.44 -5.54 -8.66Z" fill="#f4b77d" stroke-width="1"></path><path d="M162.86 313.66a7.2 7.2 0 0 1 -7.6 7.14c-5.88 -0.26 -9.2 -2.62 -9.34 -8.3a8.1 8.1 0 0 1 8.24 -7.84 9.12 9.12 0 0 1 8.7 9Z" fill="#f4b77d" stroke-width="1"></path><path d="M97.18 272.46c4.8 -0.7 7.54 3.88 7.68 7.46a7.42 7.42 0 0 1 -7.06 7.64c-5.84 0 -11.24 -4.16 -10.84 -9.22a4.62 4.62 0 0 1 4 -4.66c2.08 -0.46 4.06 -1.68 6.22 -1.22Z" fill="#f4b77d" stroke-width="1"></path><path d="M143.62 258.42c0.36 -5.16 2.86 -9.02 7.7 -8.94a7.74 7.74 0 0 1 8 8.16 8.62 8.62 0 0 1 -8.68 8.24 7.3 7.3 0 0 1 -7.02 -7.46Z" fill="#f4b77d" stroke-width="1"></path><path d="M266.98 205.42a2.38 2.38 0 0 1 2.58 2.38c0.24 2.8 0.64 5.56 0.92 8.36a44.42 44.42 0 0 1 -0.26 6.9 1.2 1.2 0 0 1 -1.12 1.26c-0.82 0 -1.56 -0.16 -1.78 -0.96 -1.76 -6 -5.82 -10.44 -10.16 -14.68a2.9 2.9 0 0 1 -0.82 -2.92c0.32 -1.06 1.52 -0.7 2.38 -0.74 2.44 -0.18 5.7 0.5 8.26 0.4Z" fill="#f4b77d" stroke-width="1"></path><path d="M167.26 304.54c-0.2 -5.68 3.78 -7.72 8.64 -8.32 2.52 -0.3 4.7 2.56 4.84 5.72 0.2 4.42 -6.14 9.04 -10.2 7.26 -2.02 -0.88 -3.74 -2.22 -3.28 -4.66Z" fill="#f4b77d" stroke-width="1"></path><path d="M68.66 314a6.56 6.56 0 0 1 -6.46 6.8c-3.56 -0.2 -6.4 -1.9 -6.4 -5.9a6 6 0 0 1 5.5 -6.44c4.8 0.08 7.38 2.02 7.36 5.54Z" fill="#f4b77d" stroke-width="1"></path><path d="M121.82 244.62c1.54 -0.28 2.72 0.9 3.68 1.82s2.92 2 3.28 4a4.86 4.86 0 0 1 -1.86 4.94 4.96 4.96 0 0 1 -5.14 1.12 6.7 6.7 0 0 1 -4.66 -6.54 5.7 5.7 0 0 1 4.7 -5.34Z" fill="#f4b77d" stroke-width="1"></path><path d="M132.68 305.4a5.24 5.24 0 0 1 -0.94 3.68c-1.84 2.92 -4.32 3.78 -6.78 2.32a6 6 0 0 1 -2.12 -7.84c2.72 -4.92 10.62 -4.04 9.84 1.84Z" fill="#f4b77d" stroke-width="1"></path><path d="M114.8 210.74c2.24 0 5.3 2.74 5.26 4.68 0 3.18 -3.64 6.24 -7.26 6.18a4.88 4.88 0 0 1 -4.5 -4.98 6.74 6.74 0 0 1 6.5 -5.88Z" fill="#f4b77d" stroke-width="1"></path><path d="M148.62 284.4c0 -2.28 3.12 -6 5.3 -5.72a5.62 5.62 0 0 1 4.68 2.9 4.16 4.16 0 0 1 -0.56 4.88c-0.54 0.66 -1.14 1.14 -0.8 2.18 0.2 0.56 -0.26 1.16 -0.96 1.38 -2.6 0.78 -7.66 -2.92 -7.66 -5.62Z" fill="#f4b77d" stroke-width="1"></path><path d="M78.42 282.36a8.7 8.7 0 0 1 -4.92 6.58 3.68 3.68 0 0 1 -4.58 -4.16 5.76 5.76 0 0 0 0 -1.18A5.52 5.52 0 0 1 74 278a4.28 4.28 0 0 1 4.42 4.36Z" fill="#f4b77d" stroke-width="1"></path><path d="M327.18 214a5.1 5.1 0 0 1 -4.96 5.16c-3.2 -0.26 -5.42 -1.54 -5.5 -4.52a6 6 0 0 1 5.74 -5.46 5.06 5.06 0 0 1 4.72 4.82Z" fill="#f4b77d" stroke-width="1"></path><path d="M84.9 301.86c-0.5 4 -4 7.06 -6.32 3.54 -1.78 -2.72 -0.42 -8.3 1.38 -8.48a4.62 4.62 0 0 1 4.94 4.94Z" fill="#f4b77d" stroke-width="1"></path><path d="M105.64 289.72a4.48 4.48 0 0 1 4.36 3.56 5.34 5.34 0 0 1 -4.44 4.92c-5.56 0 -5.16 -8.52 0.08 -8.48Z" fill="#f4b77d" stroke-width="1"></path><path d="M137.46 262.88a4 4 0 0 1 -3.78 4.48 4.46 4.46 0 0 1 -4 -4.58 4.22 4.22 0 0 1 3.82 -4.18 4.78 4.78 0 0 1 3.96 4.28Z" fill="#f4b77d" stroke-width="1"></path><path d="M170 276.14c0 1.54 -1.7 3.68 -2.96 3.66s-2.74 -2.36 -2.68 -4.24c0 -0.92 0.18 -2 1.46 -2.1 2.18 -0.18 4.18 1.08 4.18 2.68Z" fill="#f4b77d" stroke-width="1"></path></g><g><path d="M53.12 248.74c0 -10.64 2.4 -17.82 2.72 -27.42 0.22 -6 1.76 -16.74 1.44 -22.16a10.8 10.8 0 0 1 3.12 -8.32 80.82 80.82 0 0 1 13.16 -12 25.48 25.48 0 0 1 9.32 -4.28c8 -1.42 13.54 -9.04 21.44 -6.56 2.36 0.74 4.9 0.86 7.14 1.74a26.68 26.68 0 0 1 11 8c4.9 6 6.9 13.22 9.44 20.26a1.38 1.38 0 0 1 -0.78 2 1.54 1.54 0 0 1 -2 -1c-2 -4.82 -5.16 -8.98 -7.64 -13.52a20.52 20.52 0 0 0 -4.36 -5.36c-2.34 -2.14 -3.88 -0.4 -5.72 -2 -0.68 -0.66 -0.88 -0.36 -1.06 0.38 -2.2 9.26 -6.56 17.62 -10.72 26 -1.38 2.76 -3.28 5.26 -4.66 8 -4.14 8.3 -10 13.58 -3.16 18.82 1.26 0.94 2.6 1.78 4 2.64 0.72 0.48 1.4 1.42 2.14 -0.14 0.34 -0.74 0.94 -0.16 1.18 0.42a130.52 130.52 0 0 0 11 20 31.3 31.3 0 0 1 4 12.28c0.12 0.84 0.34 2 -0.88 2.26a1.84 1.84 0 0 1 -2.32 -1.46 11.18 11.18 0 0 0 -4 -5.36c-1.78 -1.4 -2.5 -1.32 -3.84 0.5 -2 2.62 -4 5.22 -5.82 7.88a10.32 10.32 0 0 1 -7.86 4.26 39.34 39.34 0 0 1 -19.04 -3.3 8.82 8.82 0 0 1 -3.58 -2.5c-0.74 -0.88 -1.34 -0.76 -2 0a13.22 13.22 0 0 0 -2.88 5.68c-0.24 0.94 -0.36 2.12 -1.76 2.12s-1.64 -1 -2 -2a62.16 62.16 0 0 1 -3.9 -16.22 48.1 48.1 0 0 1 -1.12 -9.64Z" fill="#fadf8f" stroke-width="1"></path><path d="M288.16 172.12a119.3 119.3 0 0 1 1.08 -14.44c0 -0.7 0.24 -1.44 -0.4 -2 -0.32 -0.34 1.34 -1.78 2 -1.68 3.7 0.54 7.42 0 11.12 0.24 3.36 0.2 6.72 0.46 10 0.72a4 4 0 0 1 4.16 3.4c0.94 4.8 1.86 7.86 -2 10.62 -5.4 3.78 -6.44 10.44 -8.66 17.16 -1.06 3.2 -1.64 3.38 -4.94 3.78 -3.66 0.46 -7.3 -0.1 -10.94 0.18 -1.64 0.12 -2.32 -0.8 -2 -2.72a94.24 94.24 0 0 0 0.58 -15.26Z" fill="#fadf8f" stroke-width="1"></path><path d="M200.8 233.82c-4.96 -0.46 -10 -0.26 -14.88 -0.32 -1.7 0 -2.44 -0.72 -2.38 -2.36a139.46 139.46 0 0 1 2.7 -25.78 1.7 1.7 0 0 1 1.26 -1.62c0.82 -0.18 1.26 0.38 1.46 1.08s0.66 0.54 1.1 0.52a148.3 148.3 0 0 1 20.4 -0.26c1.08 0 1.34 0.86 1.22 1.82 -0.94 7.44 -1.24 8.16 -0.92 9.88a27.1 27.1 0 0 1 -0.28 7.74 45.58 45.58 0 0 1 -0.42 6.38 2.92 2.92 0 0 1 -3.02 2.56 50.22 50.22 0 0 1 -6.24 0.36Z" fill="#fadf8f" stroke-width="1"></path><path d="M158.8 118.66c0.52 6 0.26 12 0.38 18 0 2.58 -0.94 3.56 -3.56 3.6 -8.52 0 -16.84 2.14 -20.58 2.36 -1.56 0 -2.28 -0.72 -2.32 -2.24a33.44 33.44 0 0 1 0.72 -7.2c1.14 -6 0.2 -9.16 0.98 -14a3.46 3.46 0 0 1 2 -3.08c1.24 -0.54 2.46 -3.04 3.7 -1.4 0.18 0.24 0.34 0.4 0.68 0.24 4.68 -2 12.28 -0.62 16.58 -0.18a1.52 1.52 0 0 1 1.4 1.78Z" fill="#fadf8f" stroke-width="1"></path><path d="M257 139.6c-6.6 0.98 -13.34 0.34 -20 1.86 -3.46 0.8 -4.94 0.7 -3.46 -3.88 1.82 -5.7 3.66 -11.36 5.88 -16.9 0.6 -1.52 0.28 -3.1 0.86 -4.7s0 -2 2.12 -1.76c20.98 1.74 12 1.42 18.12 1.02 1.8 -0.12 2.34 0.3 2.22 2 -0.74 11.62 -1.26 11.42 -1.66 19.12 -0.12 3.32 -0.74 3.24 -4.08 3.24Z" fill="#fadf8f" stroke-width="1"></path><path d="M186.54 160.38a10 10 0 0 1 0.34 -4.38c0.3 -0.64 0.48 -1.3 1.28 -1.38a1.16 1.16 0 0 1 1.3 1.06c0.24 1.2 1.1 1 1.82 0.84a29.76 29.76 0 0 1 8.74 0.1 1.1 1.1 0 0 1 0.94 1.82 60.34 60.34 0 0 0 -3.12 7.18 11.6 11.6 0 0 0 1.3 12.74 6.26 6.26 0 0 0 2 1.52 2.36 2.36 0 0 1 1.14 3.14c-0.5 1.42 -1.28 2.44 -2.92 2.28a38 38 0 0 0 -11.16 1.06c-1.46 0.3 -2.26 -0.3 -2.34 -1.8 -0.1 -2.04 0.7 -16.24 0.68 -24.18Z" fill="#fadf8f" stroke-width="1"></path><path d="m145.58 245.06 0 2.7a2.6 2.6 0 0 1 -3.78 2.58 14.64 14.64 0 0 0 -6 -0.98 16.68 16.68 0 0 1 -7.76 -2c-0.88 -0.46 -1.86 -0.98 -1.7 -2.26s0.38 -2.92 2 -3.52a80.98 80.98 0 0 0 10.78 -5.58c2.56 -1.4 3.52 -1.18 4.78 1.48a14.46 14.46 0 0 1 1.68 7.58Z" fill="#fadf8f" stroke-width="1"></path><path d="M50.78 179.48c-1.48 0.44 -1.64 -1.8 -2.44 -3.12s0 -2.58 0.66 -3.76c0.26 -0.5 0.74 -0.42 1.18 -0.44a15.68 15.68 0 0 0 9.24 -3.12c0.72 -0.58 1.24 -0.22 1.78 0.26a3.86 3.86 0 0 1 0.44 4.82c-2.28 3.98 -6.1 4.7 -10.86 5.36Z" fill="#fadf8f" stroke-width="1"></path><path d="M60.86 162.76c-1.26 -2.6 -2.5 -2.64 -4.32 -0.42a17.18 17.18 0 0 1 -8.66 4.74c-0.76 0 -1.2 0.32 -1.28 1.22 -0.14 1.72 0.26 2.38 2 2.46a16.44 16.44 0 0 0 10 -2.6c0.28 -0.18 0.58 -0.52 0.9 -0.36 0.94 0.46 1.1 -0.28 1.44 -0.84a4.16 4.16 0 0 0 -0.08 -4.2Z" fill="#fadf8f" stroke-width="1"></path><path d="M52.32 153.8A38 38 0 0 1 44 160a3.2 3.2 0 0 0 -1.66 3.88A3.32 3.32 0 0 0 45.7 166c4.28 0 7.44 -2.26 10.38 -4.92 3.48 -3.12 1.32 -8.72 -0.8 -8.82s-1.46 -1.84 -1.34 -3.58a4.74 4.74 0 0 0 -2.44 -5.1 8.54 8.54 0 0 0 -6.58 -0.8c-2.24 0.88 -2.58 -0.46 -3.3 -1.7 -0.96 -1.64 -1.54 -4 -4.62 -5.6a3.16 3.16 0 0 0 -3.34 0.4 2.32 2.32 0 0 0 -0.96 2.68 20.44 20.44 0 0 1 0.36 12 16.46 16.46 0 0 1 -4.68 5.7c-2.56 2.62 -2.9 5.8 -3.08 9.2 -0.12 2.22 1.52 3.18 2.66 4.56 -0.1 0.42 0.66 0.84 0.14 1.2s-0.94 -0.16 -1.28 -0.52a4.26 4.26 0 0 1 -1.06 -1.28c-0.56 -1.4 -1.44 -1.24 -2.42 -0.6 -1.46 0.96 -2.88 2 -4.3 2.98 -2.62 1.86 -0.6 3.38 1.34 6.6A49.84 49.84 0 0 0 28 188.3a2.52 2.52 0 0 0 3.24 0.5 34.78 34.78 0 0 1 7.24 -3.56c1.38 -0.44 1.4 -1.36 0.34 -2.36a4.9 4.9 0 0 1 -1.12 -1.44c-0.34 -0.66 -1.32 -1.6 -0.68 -2 1 -0.62 1.18 0.84 1.68 1.38s0.94 1.74 2 1.44a16.56 16.56 0 0 0 6.58 -2.92c0.4 -0.34 0.76 -0.7 0.28 -1.26a4.34 4.34 0 0 1 -0.38 -5.2c0.34 -0.64 0 -0.88 -0.48 -1.12a2.48 2.48 0 0 1 -1.58 -3.26c0.24 -0.78 0 -1.26 -1 -1.48a4 4 0 0 1 -2.86 -6c0.14 -0.3 0.44 -0.52 0.34 -0.92 -3.48 -0.68 -4.42 -1.8 -4.22 -5.06a8 8 0 0 1 4.62 -6.6c-0.26 1.58 -6.14 6.64 -2.38 9.84a4.42 4.42 0 0 0 5.24 0 32.48 32.48 0 0 0 7.34 -5.64c0.28 -0.28 0.56 -0.94 1.06 -0.5s0 0.88 -0.36 1.24a5.44 5.44 0 0 1 -0.58 0.42Z" fill="#fadf8f" stroke-width="1"></path></g><g><path d="M214 183.54c0.86 -0.7 1.02 -1.18 -0.28 -1.58 -3 -0.92 -5.04 0 -9.1 -2.24 -0.66 -0.34 -1.46 -0.8 -1.46 -1.52 0 -2.72 -3.3 -1.48 -5.02 -5.44 -1.18 -2.76 2 -1.58 0.58 -4a5.58 5.58 0 0 1 -0.4 -1.1c-0.86 -2.86 0.36 -4.36 3.34 -4 0.26 -1.82 0.22 -4.52 2.84 -4.32 1.7 0.12 0.76 -1.32 0.86 -1.66 0.2 -0.72 -0.54 -1.62 0.34 -2.2s1.56 0.22 2.3 0.56a34.48 34.48 0 0 1 8.62 5.46 6 6 0 0 1 1.34 -3.74 3.1 3.1 0 0 1 2.74 -1.66 3.14 3.14 0 0 1 2.68 2.28 16.6 16.6 0 0 1 0.66 5.52c0.34 4.34 2 8.44 2.4 12.74 0 0.64 0.46 0.58 0.82 0.56a3.24 3.24 0 0 1 3.28 2.18c1.7 3.68 3.86 7.1 5.54 10.8a28.5 28.5 0 0 0 6.86 9.36c18.12 16.24 26.42 33.72 46.9 39.48 7.78 2.2 15.38 -0.92 20.86 -2 1.26 -0.28 1.18 -0.84 0.72 -1.7a11.16 11.16 0 0 0 -6 -5.62c-2.1 -0.8 -4.16 -1.74 -6.28 -2.48 -1.3 -0.46 -2.72 0.16 -4 -0.22 -2.64 -0.72 -5.48 0.14 -5.64 -2.7 0 -1.12 -0.22 -2.24 -0.22 -3.38a146.7 146.7 0 0 1 0.72 -16.22c0.24 -2 0.66 -2.36 2.56 -2a6 6 0 0 0 0.84 0c1.08 0 2.2 0.62 3.1 0.48s0.6 -1.76 1.18 -2.64c1.76 -2.66 5.04 -2.82 6.6 -3.34 2.4 -0.82 2.74 -1.38 2.3 -3.82a14.86 14.86 0 0 1 -0.1 -5.4c0.16 -0.96 -0.12 -1.3 -1.06 -0.82a6.52 6.52 0 0 1 -3.32 0.44c-3.48 -0.26 -6.96 -0.74 -10.48 -0.7a2.28 2.28 0 0 1 -2.4 -2.14 14 14 0 0 1 -0.14 -3.86A152.92 152.92 0 0 0 290 159.8a9.72 9.72 0 0 1 0.18 -1.84c0.18 -1.26 0.38 -2.44 2.2 -1.64 0.54 0.24 1.32 0 2 -0.12 7.3 -0.82 14.54 0.46 21.8 0.72 1.58 0 3.16 0.12 4.72 0.28 2 0.2 2.52 1.08 2 2.86a41.52 41.52 0 0 0 -1.08 9.68c0 0.74 0.1 0.88 0.84 1 5.3 0.76 10.64 1.1 16 1.66a51.34 51.34 0 0 0 7.24 -0.3 17.58 17.58 0 0 1 12.62 4.74A34 34 0 0 1 370 199.62a53.46 53.46 0 0 1 -0.4 14.3 9.32 9.32 0 0 1 -3.82 6.36 28.7 28.7 0 0 0 -7.36 7.86c-1.02 1.48 -2.18 2.88 -3.28 4.3a6.46 6.46 0 0 1 -7.36 2.5c-5.5 -1.7 -8.1 3.26 -12 0.92 0 3.52 0.42 4 3.5 4.86a99.24 99.24 0 0 1 10.58 3.5 32.96 32.96 0 0 1 15.3 12 35.04 35.04 0 0 1 5.38 14.28c1.62 9.4 6.94 11.42 8.7 22.72a10.14 10.14 0 0 1 0 4.18 24.54 24.54 0 0 0 0.76 13.32c0.68 2.44 2.74 10.58 2.8 10.98a1.6 1.6 0 0 1 -1.1 2c-1.02 0.3 -1.62 -0.4 -1.88 -1.26 -0.56 -2 -1.06 -4 -1.54 -5.88a137.22 137.22 0 0 1 -3.32 -14.16c-0.78 -6.26 2.16 -11.72 -2.78 -19.72a56.68 56.68 0 0 1 -6 -14.66c-2 -7.52 -5.46 -14.22 -12.36 -18.56a61.82 61.82 0 0 0 -11.7 -5.22c-1.7 -0.62 -9 -4 -14.46 -4.34 -7.3 -0.54 -10.1 -2 -13.86 -0.38a47.58 47.58 0 0 1 -15.28 3.18 32 32 0 0 1 -26.2 -8.7c-12.7 -12.26 -12.92 -14.44 -24.46 -24.12a57.24 57.24 0 0 1 -14.16 -18.34 89.32 89.32 0 0 1 -5.36 -10.72 1.34 1.34 0 0 0 -2 -0.86c-2.72 1.26 -5.4 2.54 -8 3.82 -0.72 0.34 -0.52 0.86 -0.36 1.42 4.28 15.28 9.4 22.26 17.64 39.84a72 72 0 0 0 14.62 20.5c3.6 3.6 6.16 8.18 10.24 11.26 7.86 6 15.34 12.42 24 17.38a30.26 30.26 0 0 1 8 6c3.66 4.3 3.42 9.52 1.66 14.58 -1.02 2.9 -2.74 5.62 -2.9 8.76 -0.34 5.86 -0.46 11.74 -0.68 17.6l0 0.68c0 0.94 -0.16 2 -1.34 2s-1.66 -0.78 -1.7 -1.88c0 -3.28 0.58 -16.64 0.68 -18.42a22.18 22.18 0 0 1 2 -7.62 13.2 13.2 0 0 0 -0.94 -12.74 20.36 20.36 0 0 0 -7.2 -6.54 210.24 210.24 0 0 1 -17.56 -12.38 4.32 4.32 0 0 0 -3 -1.04c-11.44 0.44 -22.88 0.84 -34.36 0.7 -10 -0.12 -19.86 0.5 -29.78 0.38S177.74 264 168 264c-1.84 0 -2 0 -0.98 1.64 4.8 8 5 19.78 9.72 27.36 3.8 6 3.02 10.54 7.7 28.3 0.26 0.98 0.48 2 -0.64 2.52s-1.66 -0.32 -2.26 -1.18c-2.16 -3.04 -2.28 -6.68 -3 -10.12 -1.5 -7.26 -2.3 -11.84 -4.76 -16a40.42 40.42 0 0 1 -1.9 -4.5c-2 -4.56 -3.44 -9.38 -5.1 -14 -0.7 -2 -1.04 -4 -1.68 -6 -4.28 -13.2 -12.76 -19.42 -26.36 -20a68.3 68.3 0 0 1 -14.54 -2c-4.2 -1.14 -8.28 0 -12.42 0.18 -2.58 0.18 3.1 2.82 3.38 22.3 0 0.98 0.12 2.1 -1 2.18a0.98 0.98 0 0 1 -1.1 -0.84c-1.08 -4.12 -4.12 -7.04 -6.34 -10.76a28 28 0 0 0 -2.36 6.44c-1.02 4 -1.42 4.7 -5.62 4.98a128 128 0 0 1 -19.78 0.28c-0.84 0 -1.7 0 -2.52 -0.18a1.84 1.84 0 0 0 -2 0.74 14.98 14.98 0 0 0 -4.44 10.22 33.28 33.28 0 0 1 -2.74 14.18 32.76 32.76 0 0 1 -3.02 5.82c-3.16 4.4 -3.46 9.86 -4.36 15.46 -0.18 1.14 -0.62 2.2 -2 2.14s-1.46 -1.3 -1.48 -2.3a23.08 23.08 0 0 1 2.58 -12.42c0.7 -1.24 1.34 -2.48 2.12 -3.66a36.84 36.84 0 0 0 4.9 -14.12 44.66 44.66 0 0 0 0.24 -6.92c0.22 -10.92 4.22 -10.82 2.62 -11.86a12.96 12.96 0 0 1 -3.38 -3.88c-1.74 4.26 0.18 6.32 -1.48 6.76 -0.86 0.22 -1.36 -0.34 -1.7 -1.04a59.68 59.68 0 0 1 -5.62 -18.7c-0.88 -7.14 0.64 -14 1.62 -21 3.5 -25.14 0 -31.26 1.74 -38.48s6.46 -12 12.26 -16A35.72 35.72 0 0 1 86 173.48c0.6 -0.12 0.66 -0.32 0.52 -0.9a61.48 61.48 0 0 1 -0.7 -15.68c0 -1.82 0.6 -2.2 2.44 -2 9 0.44 19.34 -1.24 26.32 -1.58 2.3 -0.12 2.8 0.48 2.94 2.7 0.14 2.82 0.34 5.64 0.5 8.46 0 0.72 0.22 1.58 -1 1.46 -0.98 -0.44 -1.06 -1.42 -1.18 -2.28 -0.28 -2.12 -0.54 -4.24 -0.62 -6.38 0 -1.28 -0.4 -1.56 -1.68 -1.44a238.8 238.8 0 0 1 -23.9 1.78c-0.44 0 -0.94 -0.14 -0.96 0.58a80 80 0 0 0 0.56 14.18c0.12 0.74 0.52 0.76 1.2 0.68A23.64 23.64 0 0 0 100 169.38a22.4 22.4 0 0 1 16.5 -3.14c10.8 2.7 14.12 15.8 19.28 28.36 0.3 0.72 0.68 1.4 0.96 2.14 0.44 1.12 0.66 2 2.32 2.24 2.46 0.24 3.4 4.6 -0.24 8.46a4.54 4.54 0 0 0 -1.14 4.8 79.04 79.04 0 0 1 2.84 12 13.02 13.02 0 0 1 -0.68 6.66 2.4 2.4 0 0 0 0.1 1.78 79.86 79.86 0 0 1 4 12.68c0.7 4.18 0 4.32 4 4.72a19 19 0 0 1 15.58 10 2 2 0 0 0 2.18 1.16c10.48 -0.5 20.98 -0.3 31.48 -0.3 11.4 0 22.8 -0.34 34.2 -0.48 6 0 11.84 0.88 17.76 0.16 3.3 -0.4 6.6 0 10 -0.24l0 -0.44c-4.92 -3.56 -8 -8.8 -12 -13.2 -2.26 -2.46 -4.68 -4.76 -6.78 -7.34a79.7 79.7 0 0 1 -8 -13.84A380.94 380.94 0 0 1 216 190.42a23.58 23.58 0 0 1 -1.84 -6.94Zm83.5 36.32a2.6 2.6 0 0 0 1.38 3.44 30.3 30.3 0 0 0 6 2.66 12.38 12.38 0 0 1 9.06 9.14c0.2 0.78 0.66 1.02 1.46 1.02a27.14 27.14 0 0 1 5.4 0.22c4 0.76 8.1 0.96 12.22 1.88a33.62 33.62 0 0 0 -0.42 -3.5c-0.26 -1.2 0.68 -2.16 0.54 -3.24a4.68 4.68 0 0 1 3.22 -5.32 6.36 6.36 0 0 0 3.18 -2.86 2.2 2.2 0 0 1 3.26 -1.04 2.58 2.58 0 0 0 2.72 0 5.62 5.62 0 0 0 2 -6.3c-0.26 -0.68 -0.58 -1.1 -1.36 -0.7 -1.26 0.6 -2 0 -2.68 -1.04 -1.78 -2.7 -0.92 -4 -3.08 -6.26a19.62 19.62 0 0 1 -5.88 -10.44 8.14 8.14 0 0 0 -3.06 -5.56 22 22 0 0 1 -2.42 -2.8 48 48 0 0 1 -4.8 -8.12 38.66 38.66 0 0 0 -13.78 14.22 9.46 9.46 0 0 1 -6.92 5.16 10 10 0 0 0 -2.56 0.82c-1.4 0.72 -1.46 1.6 -0.38 2.72 3.24 3.4 0.82 5.84 0.72 8.28 0.38 -0.24 -2.04 3.76 -3.78 7.62Zm-185.2 47.18a41.86 41.86 0 0 0 -1.88 -11.02 77.18 77.18 0 0 0 -9.44 -19.88 1.36 1.36 0 0 0 -1.2 -0.68 17.24 17.24 0 0 1 -11.36 -6 7.44 7.44 0 0 1 0.66 -9.3 2.22 2.22 0 0 1 1.78 -0.84c1.36 0.24 2 -0.56 2.54 -1.5a113.38 113.38 0 0 0 7.8 -14.16 107.2 107.2 0 0 0 7.78 -28.98c0.14 -1.14 -0.12 -3.04 1.86 -2.78 3.14 0.42 -1.04 5.52 2.6 4.94a2.98 2.98 0 0 1 2.4 1.08 31.66 31.66 0 0 1 7 8.22c2.32 4.42 5.6 8.32 7.46 13.02a2.3 2.3 0 0 0 2.76 1.42c0.66 -0.12 0.96 -0.28 0.68 -1.1 -1.1 -3.18 -1.86 -6.52 -3.16 -9.62 -2.52 -6 -4.34 -12.3 -9.06 -17.24a12.48 12.48 0 0 0 -8.78 -4A20.18 20.18 0 0 0 100.6 172a19.16 19.16 0 0 1 -9.32 3.32 33.08 33.08 0 0 0 -18 6.8c-7.36 5.38 -11.52 12.24 -10.48 21.82 1.58 14.52 -0.54 23.18 -3.02 41.24a47.82 47.82 0 0 0 3.3 23.6 4.58 4.58 0 0 0 0.64 -1.72c0.3 -0.98 0.34 -2.28 1.66 -2.52s1.84 0.88 2.36 1.8a10 10 0 0 0 7.84 5.26 70.16 70.16 0 0 0 14.34 0.4 86.8 86.8 0 0 0 9.12 -0.5c1.3 -0.2 2.12 -0.64 2.36 -2.12a34.7 34.7 0 0 1 3.3 -8.84c0.3 -0.66 0.68 -1.3 1.58 -1.3s1.26 0.62 1.62 1.26a43.68 43.68 0 0 0 4.44 6.54ZM111.48 180c0 0.46 0 0.92 -0.14 1.36a100.48 100.48 0 0 1 -5.76 19.04c-3.2 7.18 -7.8 13.56 -11.56 20.4a2.22 2.22 0 0 1 -1.5 1.02 3.46 3.46 0 0 0 -2 5.16 12.9 12.9 0 0 0 9.9 5.36 2.86 2.86 0 0 1 2.88 1.74 93.82 93.82 0 0 1 5.86 12.32c0.32 0.9 0.86 1 1.7 0.88a72.16 72.16 0 0 1 9.74 -1.06c1.36 0 2 -0.44 2 -2a6.18 6.18 0 0 1 4 -6.6 31.22 31.22 0 0 0 8.58 -5c3.6 -2.8 2.74 -6.86 2.14 -11.3a72.8 72.8 0 0 0 -2.44 -8.76c-1.18 -4.48 1.52 -6 2.82 -8 0.54 -0.84 1.5 -2 0.86 -2.72s-1.62 0.28 -2.38 0.58c-4.3 1.74 -6.5 1.16 -9.1 -2.66 -1.38 -2 -5.32 -12.9 -12.16 -19.32a9.12 9.12 0 0 0 -1.88 -1.42c-1.04 -0.56 -2.1 -0.8 -1.56 0.98Zm197.62 11.42 1.48 -2a30.6 30.6 0 0 1 12.84 -10.62 0.98 0.98 0 0 0 0.66 -1.02c0 -0.64 0.28 -1.16 0.94 -1.2s0.96 0.44 1.14 1.04a32.84 32.84 0 0 0 8.7 14A3.46 3.46 0 0 1 336 194a17.5 17.5 0 0 0 4.5 10.68 16.26 16.26 0 0 1 4.64 7.4c0.18 0.62 0.48 1.1 1.3 1.04 1.62 -0.1 2.4 0.88 2.84 2.34a10.3 10.3 0 0 1 0.12 4.68c-0.82 4.26 -2.94 5.68 -7.2 4.92 -2 -0.34 -0.64 1.36 -5.08 2.82 -2 0.66 -2.48 2 -1.64 4s2 2.58 4.16 1.58a11.12 11.12 0 0 1 8.78 -1.1 3.86 3.86 0 0 0 4.38 -1.8c3.66 -4.92 7 -10.12 12.34 -13.56a7.46 7.46 0 0 0 3 -5.32 44.26 44.26 0 0 0 -0.26 -12A32.86 32.86 0 0 0 356.46 178a15.02 15.02 0 0 0 -11.88 -4.24c-15.9 1.74 -27.34 -3.78 -32 4.28a24 24 0 0 0 -3.48 13.42Zm-15.44 -32.78c-0.98 0 -1.22 0.24 -1.14 1.24a64.88 64.88 0 0 1 0 15c-0.34 2.34 -0.28 4.72 -0.48 7.08 0 1.32 0.2 1.82 1.7 1.88 4.16 0.22 8.3 0.66 12.44 1.14 1.34 0.16 0 -0.18 3.64 -7.28a11.28 11.28 0 0 1 8.74 -6.66c0.6 0 1.04 -0.2 0.9 -1.04a29 29 0 0 1 0.42 -9.2c0.18 -1.26 0 -0.74 -4.72 -1.08 -21.8 -1.56 -21.4 -1.04 -21.5 -1.04Zm-68.7 18.7a66.62 66.62 0 0 1 -3.42 -18 1.4 1.4 0 0 0 -0.72 -1.26c-0.38 -0.18 -0.6 0 -0.86 0.32 -1.06 1 -1.28 2.48 -2 3.64 -0.26 0.38 2 1.4 2.46 2 0.7 0.9 0.7 1.78 -0.42 2.18 -3.2 1.1 -6.42 2 -9.64 3.1a1.56 1.56 0 0 1 -2.16 -1.24c-0.54 -1.82 -1.14 -3.64 -1.58 -5.5 -0.26 -1.04 -0.72 -1.7 -1.8 -1.3s-0.92 1.22 -0.58 2a17.56 17.56 0 0 0 2.14 3.64c0.52 0.74 1.64 1.54 0.6 2.44s-1.78 -0.32 -2.46 -0.98a18.7 18.7 0 0 0 -2.88 -2.6c-0.4 -0.26 -0.82 -0.5 -1.22 -0.14s-0.16 0.74 0 1.1c0.68 1.68 1.34 3.36 3.34 4a6.34 6.34 0 0 1 1.74 1c0.52 0.36 0.94 0.88 0.58 1.58a1.3 1.3 0 0 1 -1.74 0.6 10.18 10.18 0 0 1 -2.96 -1.62c-0.3 -0.24 -0.56 -0.74 -1.18 -0.44a4 4 0 0 0 2.24 2.18 23.4 23.4 0 0 0 6.22 2c0.66 0 1.28 0.42 1.24 1.12s-0.68 0.94 -1.38 0.94h-2a10.24 10.24 0 0 0 4.94 1.24 7.06 7.06 0 0 1 4.54 1.56c0.56 0.46 0.82 0.22 1.26 0Zm-84.28 71.62c1.2 0 1.2 0 0.98 -1.16a81.18 81.18 0 0 0 -3.8 -12.38c-0.36 -1.1 -0.76 -0.6 -1.28 -0.22a29.74 29.74 0 0 1 -8 4.74 4.34 4.34 0 0 0 -3.24 4.34c-0.24 3.38 1.74 1.22 4.72 2.84 3.4 1.8 7.04 1.64 10.62 1.84Zm154.38 -24.78c-1.2 -3.52 -1.12 -4.38 0.94 -7.82a46.66 46.66 0 0 0 3.08 -6.56 3.52 3.52 0 0 0 -0.98 -4.36c-1.42 -1.38 -2.96 -0.5 -4.4 -0.78 -1 -0.2 -1.3 0.22 -1.36 1.26 -0.32 5.02 -0.24 10 -0.32 15.04 -0.02 2.92 -0.02 3.04 3.04 3.22Zm-87.52 -65.86c0.48 2.88 1.42 5.46 2.12 8.12 0.18 0.68 0.6 0.72 1.16 0.54l6.7 -2.12a38.24 38.24 0 0 0 -9.98 -6.54Z" fill="#3c270b" stroke-width="1"></path><path d="M204.3 86.56c-23.48 0.46 -46.94 1.84 -70.4 2.78 -10.22 0.42 -20.44 -0.1 -30.66 -0.16a100.98 100.98 0 0 0 -17.56 0.56 3.8 3.8 0 0 1 -2.64 -0.4c-0.88 -0.5 -0.46 -1.7 0.24 -1.56a19.84 19.84 0 0 0 5.86 -0.38c7.78 -0.54 15.58 -0.38 23.36 -0.18 18.18 0.5 68.38 -2.92 103.4 -3.7 22 -0.48 75.72 -1.68 97.72 -0.38 3.56 0.2 6.9 -1.02 6.88 1.44 0 1.22 -1.04 1.42 -2 1.52a163.24 163.24 0 0 1 -17.42 -0.3c-26.2 -0.32 -52.4 0.42 -78.6 0.74 -6.1 0.08 -12.14 -0.1 -18.18 0.02Z" fill="#3c270b" stroke-width="1"></path><path d="M238 168.22c0.3 -4.44 -0.22 -8.92 0.72 -13.34a0.58 0.58 0 0 0 0 -0.32c-0.32 -2.44 -0.34 -2.54 2 -2.92a42.26 42.26 0 0 1 11.12 0.18 51.34 51.34 0 0 0 10.4 1.02c3.02 -0.3 3.54 1.62 4.6 3.26 1.32 2 1.88 4.64 3.78 6.12s1.9 3.42 1.38 5.58c-1.16 4.94 -1.16 10 -2.32 15.02 -0.7 2.96 -1.48 3.62 -4.48 3.18a237.08 237.08 0 0 0 -24.56 -2.5c-2 -0.16 -2.44 -0.78 -2.64 -2.78a76.76 76.76 0 0 1 0 -12.5Zm8 -14c0 0.22 0.46 0 -4 0.12 -1.02 0 -1.34 0.46 -1.36 1.56 0 4.28 0.48 8.56 0.32 12.84a70.28 70.28 0 0 0 0.18 10.66c0 0.98 0.42 1.36 1.44 1.32a193.44 193.44 0 0 1 22.68 2.32c1.12 0.18 1.66 0 1.9 -1.32 0.88 -5.16 1.08 -10.42 2.38 -15.5 0.24 -0.96 -0.44 -0.74 -0.86 -0.76 -1.86 -0.1 -3.72 -0.1 -5.56 -0.26a2.24 2.24 0 0 1 -2.22 -2.48 15.54 15.54 0 0 1 1.1 -5.32c1.02 -3.22 0.46 -2.2 -3.24 -2.44Zm18.8 2.38c-0.42 1.72 -0.82 3.28 -1.18 4.84 -0.2 0.82 0 1.26 1.02 1.2s2.16 0 3.48 0c-1.5 -2.14 -2.12 -4.28 -3.46 -6.14Z" fill="#3c270b" stroke-width="1"></path><path d="M288.18 125.08c-0.18 -5.6 0.76 -9.24 0.74 -14.86 0 -2 0.74 -2.94 2.9 -3.14 9.52 -0.84 18.62 1.8 26.24 2.34 2 0.14 2.7 0.9 2.44 2.94 -3.28 24.92 -1.84 21.46 -1.76 26.1 0 2 -0.66 2.58 -2.58 2.36 -17.78 -2 -11.52 -1.58 -20.36 -2a2.54 2.54 0 0 1 -2 -0.98 62.68 62.68 0 0 0 -4.82 -5.46 2.12 2.12 0 0 1 -0.72 -1.78 32.7 32.7 0 0 0 -0.08 -5.52Zm2.98 -3.9a58.98 58.98 0 0 0 0.12 6.6c0 1.1 0.42 1.28 1.38 1.32a23.18 23.18 0 0 0 4.7 -0.52c2.26 -0.38 3.08 0.52 2.54 2.72 -0.32 1.24 -0.52 2.54 -0.9 3.78 -0.24 0.8 0 0.98 0.76 1.06l15.12 1.7c0.58 0 0.94 0 0.88 -0.74 -0.64 -8 0.72 -15.86 1.82 -23.74 0.14 -0.94 0 -1.28 -1 -1.36 -6 -0.38 -15.38 -2.9 -24.22 -2.24 -0.64 0 -1.22 0 -1.06 0.96 0.54 3.6 -0.26 7.28 -0.14 10.46Zm6 10.22a34.92 34.92 0 0 1 -5.4 0.44c1.3 1.38 2.38 2.5 3.44 3.66 0.56 0.6 0.88 0.62 1.06 -0.26 0.34 -1.24 0.66 -2.4 1 -3.84Z" fill="#3c270b" stroke-width="1"></path><path d="M192.38 200.96c7.48 0.64 15.02 0 22.5 0.84a15.06 15.06 0 0 0 2.68 -0.3c1.62 -0.14 2.48 0.84 2.16 2.36a139.72 139.72 0 0 0 -2.26 18.46c-0.52 6.58 0.46 10.74 -4.36 10 -6.24 -1.04 -12.56 -1.38 -18.8 -2.46a35.22 35.22 0 0 0 -7.52 -1.12c-1.22 0 -1.78 -0.9 -1.46 -2.12a19.38 19.38 0 0 0 0.62 -5.86 108.9 108.9 0 0 1 0.62 -16c0 -3.52 0 -3.52 3.62 -3.68 0.72 -0.16 1.46 -0.12 2.2 -0.12Zm0.98 3.02 -3.22 0c-1.06 0 -1.2 0.36 -1.28 1.38 -0.5 6.42 0.22 12.84 -0.22 19.26 0 0.74 0 0.96 0.92 1.14 7.5 1.66 15.14 2.26 22.72 3.26 1.2 0.16 1.82 0 1.86 -1.42a189 189 0 0 1 2.1 -22c0.18 -1.18 -0.56 -0.82 -1.08 -0.86 -7.16 -0.74 -14.56 -0.14 -21.8 -0.74Z" fill="#3c270b" stroke-width="1"></path><path d="M240.66 117.5c0.46 6 -0.6 11.72 -0.72 17.4 0 0.6 -0.18 1.12 0.74 1.06 7.32 -0.6 14.52 0.86 21.8 1 1.4 0 1.84 -0.42 2 -1.72q1.22 -10.78 2.58 -21.5c0.14 -1 0 -1.24 -1.06 -1.26 -5.36 0 -10.68 -1.08 -16 -0.76a4 4 0 0 1 -0.82 0c-0.82 0 -1.5 -0.42 -1.42 -1.32s0.72 -1.08 1.48 -1.1c2.26 0 4.52 -0.14 6.76 0 4 0.18 7.86 0.78 11.82 0.64 1.76 0 2.38 0.76 2.16 2.78 -0.68 6 -2.52 22 -2.84 23.86 -0.5 2.92 -1.14 3.36 -4 3.32 -8.42 -0.12 -16.44 -2 -23.64 -0.84 -2 0.3 -2.5 -0.4 -2.34 -2.78 0.44 -6 1.22 -12.12 1.3 -18.22a3.16 3.16 0 0 0 -0.48 -2.18c-0.84 -1.24 0.68 -2 1.34 -2.48 1.62 -1.38 3.48 -2.5 5.22 -3.72a2 2 0 0 1 2 -0.38 1.64 1.64 0 0 1 0.74 1.9 53.48 53.48 0 0 0 -0.36 6.92c0 2 -1.08 2.48 -2.82 1.6 -0.42 -0.32 -0.22 -0.22 -3.44 -2.22Zm3.82 -5.36 -3.58 2.6 3.58 2.1Z" fill="#3c270b" stroke-width="1"></path><path d="M136.5 170.14a48 48 0 0 0 0.28 -10.98c-0.24 -2.74 1.54 -4.34 4.4 -4.14 23.02 1.48 19.76 1.34 24.48 1.2 2.2 0 3.04 0.74 2.86 2.9a113.82 113.82 0 0 0 -0.22 18c0.48 6.24 1.82 8.94 -1.6 8.72 -8.68 -0.5 -17.34 -1.18 -26 -1.56a4.52 4.52 0 0 1 -4.16 -4.56c-0.12 -3.26 -0.04 -6.42 -0.04 -9.58Zm2.44 -12.62a49.76 49.76 0 0 1 0.66 14c-0.2 2.8 0 5.64 -0.14 8.44 0 0.88 0.24 1.34 1.24 1.4q12 0.64 24 1.34c0.92 0 1.28 -0.12 1.16 -1.16a103.56 103.56 0 0 1 -0.32 -21.12c0 -1.28 -0.3 -1.48 -1.44 -1.44 -6.1 0.16 -14.84 -1.26 -25.16 -1.46Z" fill="#3c270b" stroke-width="1"></path><path d="M182.94 137.66c-1.2 -0.2 -1.72 -0.94 -1.18 -2 2.58 -5.32 2 -10.88 1.24 -16.42a33.24 33.24 0 0 0 -1.12 -6.94c-0.44 -1.32 0.92 -1.46 1.88 -1.44 5.14 0.1 2.14 -0.42 29.24 -1.38 2.84 -0.1 3.3 0.4 3.14 3.2q-0.66 11.54 -1.4 23.12c-0.14 2.18 -1 2.82 -3.58 2.74 -28.18 -1 -25.3 -0.34 -28.22 -0.88Zm27.62 -2c1.1 0 1.4 -0.26 1.46 -1.38 0.36 -6.88 0.76 -13.74 1.34 -20.6 0.14 -1.56 -0.26 -1.7 -1.6 -1.64q-13.18 0.72 -26.36 1.28c-0.8 0 -0.96 0.3 -0.88 0.98 0.18 1.52 0.3 3.04 0.56 4.52 0.88 4.96 1.76 10 0.22 14.88 -0.42 1.34 0.14 1.46 1.24 1.46 9.56 -0.02 -5.08 0.08 24.02 0.58Z" fill="#3c270b" stroke-width="1"></path><path d="M106.96 139.68c-7.1 -0.2 -15.06 -2.24 -20.22 -1.62 -2.66 0.3 -3.28 -0.28 -3.3 -3.02q0 -7.38 -0.16 -14.72a38.2 38.2 0 0 1 0 -8.28c0.22 -1.08 0.48 -1.66 1.8 -2a18.12 18.12 0 0 1 5.2 0c8.22 0.54 16.44 1.04 24.68 1.02 2 0 2.62 0.72 2.5 2.54a142.52 142.52 0 0 1 -3.22 23.06c-0.56 2.52 -0.84 2.74 -3.34 2.9a13.88 13.88 0 0 1 -3.94 0.12ZM86.22 134.4c0 0.92 0.2 1.28 1.2 1.28 6.92 0 13.66 2 21.52 1.88 1.5 0 2.48 -0.4 2.74 -2.28 0.94 -6.74 2.18 -13.46 2.56 -20.28 0.1 -1.88 -0.32 -0.82 -9.82 -1.38 -5.68 -0.34 -11.36 -0.76 -17.02 -1.2 -1.34 -0.1 -2 0.2 -1.8 1.72a175.66 175.66 0 0 1 0.62 20.26Z" fill="#3c270b" stroke-width="1"></path><path d="M151.16 110.8a77.3 77.3 0 0 0 9.24 0.38c2 0 2.32 0.4 2.5 2.36 0.62 6.8 1.08 13.6 1.02 20.42 0 1.3 0.16 2.6 0.28 3.88s-0.46 2.34 -2 2.42c-5.78 0.34 -11.54 1.38 -17.38 0.84a26.46 26.46 0 0 0 -6 0c-1.28 0.18 -2 -0.42 -2.22 -1.72a164.28 164.28 0 0 1 -2.6 -19.52 2.84 2.84 0 0 1 0.88 -2.52c2.24 -2 4.46 -4 6.66 -6a2 2 0 0 1 1.38 -0.54Zm-14.3 10.44a4.48 4.48 0 0 0 0 0.68 73.3 73.3 0 0 0 2 12.68c0.34 1.18 0 2.88 0.82 3.48s2.4 0 3.62 0.24c5.6 0.7 11.16 -0.26 16.72 -0.48 0.62 0 1.38 0.14 1.36 -0.98 0 -7.34 -0.28 -14.66 -0.86 -22 0 -0.62 -0.12 -1.08 -0.94 -1.06 -5 0 -10 -0.9 -15.02 -0.42 -0.9 0 -1.12 0.4 -1.22 1.18a41.68 41.68 0 0 0 -0.5 6c0 1.7 -0.58 2 -2.22 1.7 -1.32 -0.26 -2.52 -0.68 -3.76 -1.02Zm3.9 -6 -3.86 3.42a8.58 8.58 0 0 0 2.8 1.2c0.5 0.12 0.84 0.14 0.84 -0.58 0.02 -1.14 0.12 -2.38 0.22 -3.96Z" fill="#3c270b" stroke-width="1"></path><path d="m146 199.68 22 -0.76a2.22 2.22 0 0 1 2.62 2.4c0.18 8 1.56 15.84 0.66 23.82 -0.28 2.66 -0.74 3.12 -3.44 3.28 -5.64 0.3 -11.26 0.64 -16.9 0.98 -0.88 0 -1.58 0.16 -1.8 -1.1s0 -1.22 0.96 -1.36a90.64 90.64 0 0 1 9.6 -0.92c2.42 -0.12 4.84 -0.34 7.26 -0.46 1 0 1.22 -0.46 1.34 -1.44 0.88 -7.12 -0.74 -14.2 -0.4 -21.3 0 -1.26 -0.78 -1.12 -1.58 -1.1 -5.42 0.14 -10.84 0.18 -16.24 0.48A3.34 3.34 0 0 1 146 199.68Z" fill="#3c270b" stroke-width="1"></path><path d="M214 183.54a2.16 2.16 0 0 1 -1.7 0.84c-16.48 -0.62 -18.16 0.24 -22.16 0a3.6 3.6 0 0 1 -4 -3.74 21.52 21.52 0 0 1 0 -2.54c0.26 -18.74 0.52 -19.28 -0.2 -22.14 -0.42 -1.68 0.36 -2.7 2 -2.5a124.28 124.28 0 0 1 13.36 2.94c0.62 0.12 1.46 0.24 1.4 1.16s-0.88 0.68 -1.46 0.8c-3.42 0.64 -6.56 -0.78 -9.82 -1.26a7.38 7.38 0 0 1 -1.32 -0.28c-0.78 -0.24 -0.98 0 -0.96 0.8 0.34 7.1 0 14.22 0 21.32 0 2.58 0 2.62 2.62 2.72 6.6 0.22 13.2 0.44 19.78 0.62a2.36 2.36 0 0 1 2.46 1.26Z" fill="#3c270b" stroke-width="1"></path><path d="M156.2 278a4.74 4.74 0 0 0 1.28 -2c0.28 -0.76 0.86 -1.28 1.72 -0.92s0.82 1.16 0.38 1.86a22.5 22.5 0 0 1 -2.24 4c-0.82 0.84 -0.32 1.72 -0.16 2.54 1.62 8.54 6.44 30.54 8.96 38a2.28 2.28 0 0 1 0.12 0.5c0.12 0.94 0.54 2 -0.76 2.4s-1.56 -0.8 -1.84 -1.7c-3.1 -9.9 -5.82 -20 -8 -30a162.26 162.26 0 0 1 -3.2 -16.38 6.7 6.7 0 0 1 0.14 -3.02c0.24 -0.7 0.62 -1.2 1.44 -1.18s1.12 0.6 1.26 1.32c0.22 1.4 0.54 2.88 0.9 4.58Z" fill="#3c270b" stroke-width="1"></path><path d="M259.88 204a88.96 88.96 0 0 1 -9.8 -0.3c-0.98 0 -2 -0.2 -2 -1.3s1 -1.48 2 -1.46c5.28 0 10.56 0.5 15.86 0.32a4 4 0 0 0 2.6 -0.48c0.5 -0.42 1.04 0 1.48 0.34a92.46 92.46 0 0 1 6.48 6.66 1.68 1.68 0 0 1 0 2.56 1.62 1.62 0 0 0 -0.42 1.38c0 5.12 -0.38 10.24 0 15.38a3.74 3.74 0 0 1 0 1.16 1.38 1.38 0 0 1 -1.42 1.2 1.22 1.22 0 0 1 -1.28 -1.12 22.82 22.82 0 0 1 -0.48 -5.18c0.4 -3.7 0.34 -7.44 0.7 -11.14 0.1 -0.92 -0.2 -1.28 -1.08 -1.12 -1.72 0.32 -3.46 -0.26 -5.2 0.18 -1.02 0.26 -1.6 -0.48 -1.48 -1.5a24.16 24.16 0 0 1 0.74 -4.16c0.4 -1.3 0 -1.48 -1.2 -1.44 -1.9 0.02 -3.7 0.02 -5.5 0.02Zm9.8 0.2c-0.66 1.3 -1.36 2.7 -0.88 3.72s2 0.26 3.06 0.28a7.54 7.54 0 0 0 1.18 -0.12Z" fill="#3c270b" stroke-width="1"></path><path d="M82.76 281.26c0.54 -0.7 0.96 -1.3 1.44 -1.84a0.98 0.98 0 0 1 1.24 -0.16c0.38 0.22 0.38 0.62 0.32 1.04 -2.14 12.8 -0.9 25.74 -1.6 38.6 0 1.3 -0.12 2.6 -0.14 4 0 1 -0.46 1.64 -1.54 1.54s-2 0 -2 -1.62 0.64 -17.04 0.62 -17.26c-0.32 -5.34 0 -10.7 0 -16a7.02 7.02 0 0 1 0.12 -1.84c0.86 -3.04 -1.52 -4.88 -1.88 -6.82 -0.12 -0.7 -0.14 -1.4 0.62 -1.74 1.3 -0.7 1.88 0.64 2.8 2.1Z" fill="#3c270b" stroke-width="1"></path><path d="M119.76 204a1.8 1.8 0 0 1 -1.36 2 1.74 1.74 0 0 1 -2.28 -0.84 12 12 0 0 1 -1.32 -5.16 1.82 1.82 0 0 1 1.16 -1.88 1.74 1.74 0 0 1 2 0.66 9.58 9.58 0 0 1 1.8 5.22Z" fill="#3c270b" stroke-width="1"></path><path d="M115.36 190c0.9 0.24 2 0.34 2 1.26a1 1 0 0 1 -0.94 1.04 11.08 11.08 0 0 0 -5.5 2.26c-0.46 0.26 -0.82 0.34 -1.22 0a1 1 0 0 1 0 -1.5A8.5 8.5 0 0 1 115.36 190Z" fill="#3c270b" stroke-width="1"></path><path d="M131.72 226a7.36 7.36 0 0 1 -2.58 -1.26 1.02 1.02 0 0 1 -0.42 -1.34 1.14 1.14 0 0 1 1.38 -0.68 3.4 3.4 0 0 1 1.24 0.52c0.78 0.58 1.26 0.38 1.74 -0.4s1.08 -1.3 1.78 -0.76 0.2 1.36 -0.24 2 -0.96 2.14 -2.9 1.92Z" fill="#3c270b" stroke-width="1"></path><path d="M331 196.52c0 0.74 0.28 1.7 -0.74 2s-1.22 -0.64 -1.62 -1.2c-5.48 -7.42 -9.78 -5.62 -8.72 -8.52 0.44 -1.18 1.22 -1.68 2.34 -1.24 2.92 1.14 5.88 2.26 7.66 5.12a6.7 6.7 0 0 1 1.08 3.84Zm-2.66 -2.36c0.22 0.34 0.32 0.8 0.84 0.92a1.48 1.48 0 0 0 -0.52 -1.36c-1.16 -2.54 -3.88 -3.04 -5.86 -4.52 -0.3 -0.22 -0.88 -0.64 -1.12 0s0.5 0.64 0.84 0.8a17.8 17.8 0 0 1 5.82 4.16Z" fill="#3c270b" stroke-width="1"></path><path d="M301.4 212.16a10 10 0 0 1 3.78 0.24 3.2 3.2 0 0 1 2.48 4c-0.46 2.96 -2.76 6 -5.66 5.02a2.62 2.62 0 0 1 -1.6 -3.04c0 -0.92 -0.62 -2.42 0.82 -2.54s0.76 1.42 1.02 2.22 0 1.26 0.58 1.46 1.18 -0.26 1.54 -0.78a7.58 7.58 0 0 0 1.04 -1.72c0.7 -1.76 0.42 -2.28 -1.38 -2.86 -0.44 -0.14 -0.86 -0.28 -1.3 -0.38a1.62 1.62 0 0 1 -1.3 -1.72Z" fill="#3c270b" stroke-width="1"></path><path d="M319.36 197.46a11.52 11.52 0 0 1 -2 5.26 1.48 1.48 0 0 1 -1.78 0.6 1.34 1.34 0 0 1 -0.88 -1.48 10.72 10.72 0 0 1 1.74 -5.36 1.48 1.48 0 0 1 2 -0.56 1.58 1.58 0 0 1 0.92 1.54Z" fill="#3c270b" stroke-width="1"></path></g></g></svg>